<svg width="119" height="109" viewBox="0 0 119 109" fill="none" xmlns="http://www.w3.org/2000/svg">
<path fill-rule="evenodd" clip-rule="evenodd" d="M93.6195 36.7793L51.1495 36.8083L45.7756 55.3056H87.9848L77.0342 92.7782L43.1248 92.9231C36.679 92.952 32.0004 86.767 33.7965 80.5674L57.0159 0.349609H23.179L1.01702 76.2798C-3.66163 92.3292 8.38987 108.379 25.12 108.35L105.685 108.219L117.404 68.5883C122.097 52.6983 110.19 36.7648 93.6195 36.7793ZM57.2182 73.6138H53.5535L56.0449 65.285H64.3738L63.215 69.1525C62.4183 71.8032 59.9848 73.6138 57.2182 73.6138ZM67.1555 73.6138H71.1388C73.7172 73.6138 75.9768 71.9336 76.7155 69.4711L77.9757 65.285H69.6469L67.1555 73.6138Z" fill="#53FAFB"/>
</svg>
