<svg width="73" height="68" viewBox="0 0 73 68" fill="none" xmlns="http://www.w3.org/2000/svg">
<path d="M70.9827 36.9653H45.6864C44.5809 36.9653 43.6797 37.8665 43.6797 38.9718C43.6797 39.5348 43.919 40.042 44.292 40.4079L62.1044 58.2202C62.4703 58.6145 62.9988 58.8612 63.5763 58.8612C64.2731 58.8612 64.8855 58.5091 65.2446 57.974C69.5495 52.977 72.3439 46.6536 72.9194 39.6924C72.9393 39.452 72.9894 39.2128 72.9894 38.9716C72.9896 37.8665 72.0952 36.9653 70.9827 36.9653Z" fill="#50FFFF"/>
<path d="M38.0503 0.600098C36.9448 0.606857 36.0508 1.50128 36.0508 2.60659V30.7193C36.0508 31.8318 36.9448 32.733 38.0503 32.733H66.1702C67.2757 32.733 68.1767 31.8318 68.1767 30.7193C67.1838 14.5405 54.2363 1.59298 38.0503 0.600098Z" fill="#50FFFF"/>
<path d="M53.5009 56.5792L32.7597 35.838C32.4078 35.4788 32.1967 34.9789 32.1967 34.4368L32.1892 5.14111C32.1892 4.0358 31.2952 3.1416 30.1897 3.1416C13.3418 4.16963 0 18.1659 0 35.2677C0 53.045 14.4122 67.464 32.1892 67.464C40.2999 67.464 47.7065 64.4648 53.3671 59.515C53.8037 59.1487 54.0784 58.5999 54.0784 57.9873C54.0784 57.445 53.8598 56.9451 53.5009 56.5792Z" fill="#50FFFF"/>
</svg>
