<svg width="555" height="202" viewBox="0 0 555 202" fill="none" xmlns="http://www.w3.org/2000/svg">
<g filter="url(#filter0_d_1543_11266)">
<path d="M57.9545 97.0045L32.0793 118.734C29.6357 120.786 28.2246 123.813 28.2246 127.004V183.097C28.2246 189.062 33.0599 193.897 39.0246 193.897H516.583C522.547 193.897 527.383 189.062 527.383 183.097V106.427C527.383 103.239 525.973 100.213 523.533 98.1606L505.126 82.6864C501.11 79.3102 495.249 79.3087 491.231 82.6827L483.681 89.0232C480.228 91.9224 475.192 91.9224 471.74 89.0232L470.46 87.9489C467.748 85.6709 463.791 85.6709 461.078 87.9489C458.366 90.2268 454.409 90.2268 451.696 87.9489L441.461 79.3538C438.256 76.6618 433.579 76.6618 430.373 79.3539C427.168 82.0459 422.491 82.0459 419.286 79.3538L359.277 28.9607C355.261 25.5881 349.403 25.5881 345.386 28.9607L313.22 55.9732C309.204 59.3458 303.345 59.3458 299.329 55.9732L294.76 52.1363C293.034 50.6867 290.516 50.6867 288.79 52.1363C287.064 53.5859 284.546 53.5859 282.819 52.1363L276.545 46.8669C272.528 43.4943 266.67 43.4943 262.654 46.8669L192.959 105.395C188.943 108.767 183.084 108.767 179.068 105.395L154.578 84.8282C150.562 81.4556 144.703 81.4556 140.687 84.8282L105.962 113.99C101.946 117.362 96.0872 117.362 92.0711 113.99L71.8453 97.0045C67.8292 93.6319 61.9706 93.6319 57.9545 97.0045Z" fill="url(#paint0_linear_1543_11266)"/>
<g filter="url(#filter1_f_1543_11266)">
<path d="M28.2246 124.817L57.9545 99.8507C61.9706 96.4781 67.8292 96.4781 71.8453 99.8507L92.0711 116.836C96.0872 120.208 101.946 120.208 105.962 116.836L140.687 87.6744C144.703 84.3018 150.562 84.3018 154.578 87.6744L179.068 108.241C183.084 111.613 188.943 111.613 192.959 108.241L262.654 49.7131C266.67 46.3405 272.528 46.3405 276.545 49.7131L282.819 54.9825C284.546 56.4321 287.064 56.4321 288.79 54.9825V54.9825C290.516 53.5329 293.034 53.5329 294.76 54.9825L299.329 58.8194C303.345 62.192 309.204 62.192 313.22 58.8194L345.386 31.8069C349.403 28.4343 355.261 28.4343 359.277 31.8069L419.286 82.2C422.491 84.8921 427.168 84.8921 430.373 82.2V82.2C433.579 79.508 438.256 79.508 441.461 82.2L451.696 90.7951C454.409 93.073 458.366 93.073 461.078 90.7951V90.7951C463.791 88.5171 467.748 88.5171 470.46 90.7951L471.74 91.8694C475.192 94.7686 480.228 94.7686 483.681 91.8694L491.432 85.3596C495.36 82.0612 501.066 81.9803 505.086 85.1659L526.465 102.109" stroke="#50FFFF" stroke-width="3.6"/>
</g>
<path d="M28.2246 123.394L57.9545 98.4276C61.9706 95.055 67.8292 95.055 71.8453 98.4276L92.0711 115.413C96.0872 118.785 101.946 118.785 105.962 115.413L140.687 86.2513C144.703 82.8787 150.562 82.8787 154.578 86.2513L179.068 106.818C183.084 110.19 188.943 110.19 192.959 106.818L262.654 48.29C266.67 44.9174 272.528 44.9174 276.545 48.29L282.819 53.5594C284.546 55.009 287.064 55.009 288.79 53.5594V53.5594C290.516 52.1098 293.034 52.1098 294.76 53.5594L299.329 57.3963C303.345 60.7689 309.204 60.7689 313.22 57.3963L345.386 30.3838C349.403 27.0112 355.261 27.0112 359.277 30.3838L419.286 80.7769C422.491 83.469 427.168 83.469 430.373 80.7769V80.7769C433.579 78.0849 438.256 78.0849 441.461 80.7769L451.696 89.372C454.409 91.6499 458.366 91.6499 461.078 89.372V89.372C463.791 87.094 467.748 87.094 470.46 89.372L471.74 90.4463C475.192 93.3455 480.228 93.3455 483.681 90.4463L491.332 84.0207C495.305 80.6845 501.088 80.6443 505.107 83.9249L527.383 102.109" stroke="#50FFFF" stroke-width="3.6"/>
<path d="M360.421 27.3974C360.421 29.9339 357.571 32.7128 353.045 32.7128C348.519 32.7128 345.669 29.9339 345.669 27.3974C345.669 24.8608 348.519 22.082 353.045 22.082C357.571 22.082 360.421 24.8608 360.421 27.3974Z" fill="white" stroke="#322846" stroke-width="3.6"/>
<rect x="382.408" y="7.47437" width="132.13" height="35.5769" rx="17.7885" fill="#50FFFF"/>
<path d="M411.749 22.3274H403.001V26.9444C403.379 26.4764 403.919 26.0984 404.621 25.8104C405.323 25.5044 406.07 25.3514 406.862 25.3514C408.302 25.3514 409.481 25.6664 410.399 26.2964C411.317 26.9264 411.983 27.7364 412.397 28.7264C412.811 29.6984 413.018 30.7424 413.018 31.8584C413.018 33.9284 412.424 35.5934 411.236 36.8534C410.066 38.1134 408.392 38.7434 406.214 38.7434C404.162 38.7434 402.524 38.2304 401.3 37.2044C400.076 36.1784 399.383 34.8374 399.221 33.1814H402.893C403.055 33.9014 403.415 34.4774 403.973 34.9094C404.549 35.3414 405.278 35.5574 406.16 35.5574C407.222 35.5574 408.023 35.2244 408.563 34.5584C409.103 33.8924 409.373 33.0104 409.373 31.9124C409.373 30.7964 409.094 29.9504 408.536 29.3744C407.996 28.7804 407.195 28.4834 406.133 28.4834C405.377 28.4834 404.747 28.6724 404.243 29.0504C403.739 29.4284 403.379 29.9324 403.163 30.5624H399.545V19.0064H411.749V22.3274ZM418.001 38.9324C417.317 38.9324 416.75 38.7254 416.3 38.3114C415.868 37.8794 415.652 37.3484 415.652 36.7184C415.652 36.0884 415.868 35.5664 416.3 35.1524C416.75 34.7204 417.317 34.5044 418.001 34.5044C418.667 34.5044 419.216 34.7204 419.648 35.1524C420.08 35.5664 420.296 36.0884 420.296 36.7184C420.296 37.3484 420.08 37.8794 419.648 38.3114C419.216 38.7254 418.667 38.9324 418.001 38.9324ZM424.097 34.4774C425.825 33.0374 427.202 31.8404 428.228 30.8864C429.254 29.9144 430.109 28.9064 430.793 27.8624C431.477 26.8184 431.819 25.7924 431.819 24.7844C431.819 23.8664 431.603 23.1464 431.171 22.6244C430.739 22.1024 430.073 21.8414 429.173 21.8414C428.273 21.8414 427.58 22.1474 427.094 22.7594C426.608 23.3534 426.356 24.1724 426.338 25.2164H422.666C422.738 23.0564 423.377 21.4184 424.583 20.3024C425.807 19.1864 427.355 18.6284 429.227 18.6284C431.279 18.6284 432.854 19.1774 433.952 20.2754C435.05 21.3554 435.599 22.7864 435.599 24.5684C435.599 25.9724 435.221 27.3134 434.465 28.5914C433.709 29.8694 432.845 30.9854 431.873 31.9394C430.901 32.8754 429.632 34.0094 428.066 35.3414H436.031V38.4734H422.693V35.6654L424.097 34.4774ZM451.785 38.9324C450.471 38.9324 449.283 38.7074 448.221 38.2574C447.177 37.8074 446.349 37.1594 445.737 36.3134C445.125 35.4674 444.81 34.4684 444.792 33.3164H448.842C448.896 34.0904 449.166 34.7024 449.652 35.1524C450.156 35.6024 450.84 35.8274 451.704 35.8274C452.586 35.8274 453.279 35.6204 453.783 35.2064C454.287 34.7744 454.539 34.2164 454.539 33.5324C454.539 32.9744 454.368 32.5154 454.026 32.1554C453.684 31.7954 453.252 31.5164 452.73 31.3184C452.226 31.1024 451.524 30.8684 450.624 30.6164C449.4 30.2564 448.401 29.9054 447.627 29.5634C446.871 29.2034 446.214 28.6724 445.656 27.9704C445.116 27.2504 444.846 26.2964 444.846 25.1084C444.846 23.9924 445.125 23.0204 445.683 22.1924C446.241 21.3644 447.024 20.7344 448.032 20.3024C449.04 19.8524 450.192 19.6274 451.488 19.6274C453.432 19.6274 455.007 20.1044 456.213 21.0584C457.437 21.9944 458.112 23.3084 458.238 25.0004H454.08C454.044 24.3524 453.765 23.8214 453.243 23.4074C452.739 22.9754 452.064 22.7594 451.218 22.7594C450.48 22.7594 449.886 22.9484 449.436 23.3264C449.004 23.7044 448.788 24.2534 448.788 24.9734C448.788 25.4774 448.95 25.9004 449.274 26.2424C449.616 26.5664 450.03 26.8364 450.516 27.0524C451.02 27.2504 451.722 27.4844 452.622 27.7544C453.846 28.1144 454.845 28.4744 455.619 28.8344C456.393 29.1944 457.059 29.7344 457.617 30.4544C458.175 31.1744 458.454 32.1194 458.454 33.2894C458.454 34.2974 458.193 35.2334 457.671 36.0974C457.149 36.9614 456.384 37.6544 455.376 38.1764C454.368 38.6804 453.171 38.9324 451.785 38.9324ZM470.479 38.9324C468.715 38.9324 467.095 38.5184 465.619 37.6904C464.143 36.8624 462.973 35.7194 462.109 34.2614C461.245 32.7854 460.813 31.1204 460.813 29.2664C460.813 27.4304 461.245 25.7834 462.109 24.3254C462.973 22.8494 464.143 21.6974 465.619 20.8694C467.095 20.0414 468.715 19.6274 470.479 19.6274C472.261 19.6274 473.881 20.0414 475.339 20.8694C476.815 21.6974 477.976 22.8494 478.822 24.3254C479.686 25.7834 480.118 27.4304 480.118 29.2664C480.118 31.1204 479.686 32.7854 478.822 34.2614C477.976 35.7194 476.815 36.8624 475.339 37.6904C473.863 38.5184 472.243 38.9324 470.479 38.9324ZM470.479 35.5574C471.613 35.5574 472.612 35.3054 473.476 34.8014C474.34 34.2794 475.015 33.5414 475.501 32.5874C475.987 31.6334 476.23 30.5264 476.23 29.2664C476.23 28.0064 475.987 26.9084 475.501 25.9724C475.015 25.0184 474.34 24.2894 473.476 23.7854C472.612 23.2814 471.613 23.0294 470.479 23.0294C469.345 23.0294 468.337 23.2814 467.455 23.7854C466.591 24.2894 465.916 25.0184 465.43 25.9724C464.944 26.9084 464.701 28.0064 464.701 29.2664C464.701 30.5264 464.944 31.6334 465.43 32.5874C465.916 33.5414 466.591 34.2794 467.455 34.8014C468.337 35.3054 469.345 35.5574 470.479 35.5574ZM486.71 35.7464H492.92V38.7434H482.93V19.8974H486.71V35.7464Z" fill="black"/>
<path d="M365.891 25.9744L376.901 21.0448L376.901 30.9041L365.891 25.9744Z" fill="#50FFFF"/>
</g>
<defs>
<filter id="filter0_d_1543_11266" x="23.0664" y="7.47437" width="509.455" height="194.423" filterUnits="userSpaceOnUse" color-interpolation-filters="sRGB">
<feFlood flood-opacity="0" result="BackgroundImageFix"/>
<feColorMatrix in="SourceAlpha" type="matrix" values="0 0 0 0 0 0 0 0 0 0 0 0 0 0 0 0 0 0 127 0" result="hardAlpha"/>
<feOffset dy="4"/>
<feGaussianBlur stdDeviation="2"/>
<feComposite in2="hardAlpha" operator="out"/>
<feColorMatrix type="matrix" values="0 0 0 0 0 0 0 0 0 0 0 0 0 0 0 0 0 0 0.25 0"/>
<feBlend mode="normal" in2="BackgroundImageFix" result="effect1_dropShadow_1543_11266"/>
<feBlend mode="normal" in="SourceGraphic" in2="effect1_dropShadow_1543_11266" result="shape"/>
</filter>
<filter id="filter1_f_1543_11266" x="0.0664043" y="0.477293" width="554.518" height="152.718" filterUnits="userSpaceOnUse" color-interpolation-filters="sRGB">
<feFlood flood-opacity="0" result="BackgroundImageFix"/>
<feBlend mode="normal" in="SourceGraphic" in2="BackgroundImageFix" result="shape"/>
<feGaussianBlur stdDeviation="13.5" result="effect1_foregroundBlur_1543_11266"/>
</filter>
<linearGradient id="paint0_linear_1543_11266" x1="312.671" y1="23.1282" x2="312.671" y2="193.897" gradientUnits="userSpaceOnUse">
<stop stop-color="#00FFFF"/>
<stop offset="0.63" stop-color="#005252" stop-opacity="0.54"/>
<stop offset="1" stop-opacity="0"/>
</linearGradient>
</defs>
</svg>
