<svg width="24" height="24" viewBox="0 0 24 24" fill="none" xmlns="http://www.w3.org/2000/svg">
<rect x="1.5" y="1.5" width="21" height="21" rx="10.5" fill="#53FAFB"/>
<rect x="1.5" y="1.5" width="21" height="21" rx="10.5" stroke="#1C1C1C" stroke-width="3"/>
<path d="M8.2615 9.84L6.9415 10.83V9.4L8.3715 8.3H9.5265V16H8.2615V9.84ZM13.8174 16.22C13.3187 16.22 12.8787 16.154 12.4974 16.022C12.116 15.8973 11.7934 15.7287 11.5294 15.516C11.2727 15.3033 11.0747 15.0577 10.9354 14.779C10.8034 14.5003 10.7374 14.2107 10.7374 13.91C10.7374 13.492 10.818 13.1583 10.9794 12.909C11.1407 12.6597 11.3167 12.4617 11.5074 12.315C11.7347 12.1537 11.9914 12.0363 12.2774 11.963V11.897C12.05 11.809 11.8484 11.688 11.6724 11.534C11.5184 11.402 11.379 11.226 11.2544 11.006C11.1297 10.7787 11.0674 10.5 11.0674 10.17C11.0674 9.89867 11.126 9.63833 11.2434 9.389C11.368 9.13233 11.5477 8.90867 11.7824 8.718C12.017 8.52 12.303 8.366 12.6404 8.256C12.985 8.13867 13.3774 8.08 13.8174 8.08C14.2574 8.08 14.646 8.13867 14.9834 8.256C15.328 8.366 15.6177 8.52 15.8524 8.718C16.087 8.90867 16.263 9.13233 16.3804 9.389C16.505 9.63833 16.5674 9.89867 16.5674 10.17C16.5674 10.5 16.5014 10.7787 16.3694 11.006C16.2447 11.226 16.109 11.402 15.9624 11.534C15.779 11.688 15.5774 11.809 15.3574 11.897V11.963C15.6434 12.0363 15.9 12.1573 16.1274 12.326C16.2227 12.3993 16.3144 12.4837 16.4024 12.579C16.4977 12.6743 16.582 12.788 16.6554 12.92C16.7287 13.052 16.7874 13.1987 16.8314 13.36C16.8754 13.5213 16.8974 13.7047 16.8974 13.91C16.8974 14.2107 16.8277 14.5003 16.6884 14.779C16.5564 15.0577 16.3584 15.3033 16.0944 15.516C15.8377 15.7287 15.515 15.8973 15.1264 16.022C14.745 16.154 14.3087 16.22 13.8174 16.22ZM13.8174 15.065C14.1034 15.065 14.3564 15.032 14.5764 14.966C14.7964 14.8927 14.9797 14.7973 15.1264 14.68C15.2804 14.5627 15.394 14.4307 15.4674 14.284C15.5407 14.13 15.5774 13.9687 15.5774 13.8C15.5774 13.6387 15.5407 13.481 15.4674 13.327C15.394 13.173 15.2804 13.0373 15.1264 12.92C14.9797 12.8027 14.7964 12.711 14.5764 12.645C14.3564 12.5717 14.1034 12.535 13.8174 12.535C13.5314 12.535 13.2784 12.5717 13.0584 12.645C12.8384 12.711 12.6514 12.8027 12.4974 12.92C12.3507 13.0373 12.2407 13.173 12.1674 13.327C12.094 13.481 12.0574 13.6387 12.0574 13.8C12.0574 13.9687 12.094 14.13 12.1674 14.284C12.2407 14.4307 12.3507 14.5627 12.4974 14.68C12.6514 14.7973 12.8384 14.8927 13.0584 14.966C13.2784 15.032 13.5314 15.065 13.8174 15.065ZM13.8174 11.38C14.2867 11.38 14.6424 11.2737 14.8844 11.061C15.1264 10.8483 15.2474 10.588 15.2474 10.28C15.2474 10.0013 15.1264 9.75933 14.8844 9.554C14.6424 9.34133 14.2867 9.235 13.8174 9.235C13.348 9.235 12.9924 9.34133 12.7504 9.554C12.5084 9.75933 12.3874 10.0013 12.3874 10.28C12.3874 10.588 12.5084 10.8483 12.7504 11.061C12.9924 11.2737 13.348 11.38 13.8174 11.38Z" fill="black"/>
</svg>
