<svg width="37" height="36" viewBox="0 0 37 36" fill="none" xmlns="http://www.w3.org/2000/svg">
<rect x="0.455078" y="0.220703" width="35.75" height="35.75" rx="17.875" fill="#5653FB"/>
<path d="M12.1177 25.0098C12.6831 23.6776 14.0033 22.7433 15.5417 22.7433H21.1187C22.6571 22.7433 23.9772 23.6776 24.5427 25.0098M22.0482 15.772C22.0482 17.8254 20.3836 19.49 18.3302 19.49C16.2768 19.49 14.6122 17.8254 14.6122 15.772C14.6122 13.7186 16.2768 12.054 18.3302 12.054C20.3836 12.054 22.0482 13.7186 22.0482 15.772ZM27.6252 18.0958C27.6252 23.2293 23.4636 27.3908 18.3302 27.3908C13.1967 27.3908 9.03516 23.2293 9.03516 18.0958C9.03516 12.9623 13.1967 8.80078 18.3302 8.80078C23.4636 8.80078 27.6252 12.9623 27.6252 18.0958Z" stroke="white" stroke-width="1.43" stroke-linecap="round" stroke-linejoin="round"/>
</svg>
