<svg width="30" height="30" viewBox="0 0 30 30" fill="none" xmlns="http://www.w3.org/2000/svg">
<path d="M25 11.058V15.058M13.25 8.55802H9.8C8.11984 8.55802 7.27976 8.55802 6.63803 8.885C6.07354 9.17262 5.6146 9.63156 5.32698 10.196C5 10.8378 5 11.6779 5 13.358L5 14.558C5 15.4899 5 15.9558 5.15224 16.3234C5.35523 16.8134 5.74458 17.2028 6.23463 17.4058C6.60218 17.558 7.06812 17.558 8 17.558V21.808C8 22.0402 8 22.1563 8.00963 22.2541C8.10316 23.2036 8.85441 23.9549 9.80397 24.0484C9.90175 24.058 10.0178 24.058 10.25 24.058C10.4822 24.058 10.5983 24.058 10.696 24.0484C11.6456 23.9549 12.3968 23.2036 12.4904 22.2541C12.5 22.1563 12.5 22.0402 12.5 21.808V17.558H13.25C15.0164 17.558 17.1772 18.5049 18.8443 19.4137C19.8168 19.9438 20.3031 20.2089 20.6216 20.1699C20.9169 20.1337 21.1402 20.0011 21.3133 19.7591C21.5 19.4982 21.5 18.976 21.5 17.9317V8.1843C21.5 7.14001 21.5 6.61787 21.3133 6.35691C21.1402 6.11492 20.9169 5.98232 20.6216 5.94615C20.3031 5.90714 19.8168 6.17222 18.8443 6.70237C17.1772 7.61113 15.0164 8.55802 13.25 8.55802Z" stroke="black" stroke-width="1.5" stroke-linecap="round" stroke-linejoin="round"/>
</svg>
