<svg width="19" height="16" viewBox="0 0 19 16" fill="none" xmlns="http://www.w3.org/2000/svg">
<path d="M2.48078 4.99728C2.34301 4.99389 2.24297 4.9863 2.15303 4.96926C1.48659 4.84301 0.965625 4.34685 0.833062 3.71214C0.800781 3.55759 0.800781 3.37172 0.800781 3C0.800781 2.62828 0.800781 2.44241 0.833062 2.28786C0.965625 1.65315 1.48659 1.15699 2.15303 1.03074C2.31532 1 2.51047 1 2.90078 1H15.5008C15.8911 1 16.0862 1 16.2485 1.03074C16.915 1.15699 17.4359 1.65315 17.5685 2.28786C17.6008 2.44241 17.6008 2.62828 17.6008 3C17.6008 3.37172 17.6008 3.55759 17.5685 3.71214C17.4359 4.34685 16.915 4.84301 16.2485 4.96926C16.1586 4.9863 16.0585 4.99389 15.9208 4.99728M7.52078 9H10.8808M2.48078 5H15.9208V11.56C15.9208 12.9041 15.9208 13.5762 15.6461 14.0896C15.4045 14.5412 15.019 14.9083 14.5448 15.1384C14.0058 15.4 13.3001 15.4 11.8888 15.4H6.51278C5.10145 15.4 4.39578 15.4 3.85672 15.1384C3.38256 14.9083 2.99705 14.5412 2.75544 14.0896C2.48078 13.5762 2.48078 12.9041 2.48078 11.56V5Z" stroke="white" stroke-width="1.2" stroke-linecap="round" stroke-linejoin="round"/>
</svg>
