<svg width="33" height="36" viewBox="0 0 33 36" fill="none" xmlns="http://www.w3.org/2000/svg">
<path d="M32.0635 16.2476L19.2826 3.46669C18.4094 2.59346 17.9728 2.15684 17.4633 1.84461C17.0115 1.56778 16.519 1.36377 16.0038 1.24009C15.4228 1.10059 14.8053 1.10059 13.5703 1.10059L6.81853 1.10059M1.76953 12.3767L1.76953 15.6998C1.76953 16.5231 1.76953 16.9347 1.86253 17.3221C1.94499 17.6656 2.08099 17.9939 2.26554 18.2951C2.4737 18.6348 2.76478 18.9258 3.34694 19.508L16.4743 32.6354C17.8073 33.9684 18.4738 34.6349 19.2424 34.8846C19.9184 35.1043 20.6466 35.1043 21.3227 34.8846C22.0912 34.6349 22.7577 33.9684 24.0907 32.6354L28.2553 28.4708C29.5883 27.1378 30.2548 26.4713 30.5045 25.7027C30.7242 25.0267 30.7242 24.2985 30.5045 23.6224C30.2548 22.8539 29.5883 22.1874 28.2553 20.8544L15.9694 8.56849C15.3873 7.98634 15.0962 7.69526 14.7565 7.4871C14.4554 7.30255 14.127 7.16655 13.7836 7.08409C13.3962 6.99109 12.9845 6.99109 12.1612 6.99109H7.15513C5.26999 6.99109 4.32743 6.99109 3.6074 7.35796C2.97405 7.68067 2.45911 8.1956 2.1364 8.82895C1.76953 9.54898 1.76953 10.4915 1.76953 12.3767Z" stroke="white" stroke-width="1.683" stroke-linecap="round" stroke-linejoin="round"/>
</svg>
