<svg width="27" height="21" viewBox="0 0 27 21" fill="none" xmlns="http://www.w3.org/2000/svg">
<path d="M1 4.9445L17.6667 4.9445M17.6667 4.9445C17.6667 7.24568 19.5321 9.11116 21.8333 9.11116C24.1345 9.11116 26 7.24568 26 4.9445C26 2.64331 24.1345 0.777832 21.8333 0.777832C19.5321 0.777832 17.6667 2.64331 17.6667 4.9445ZM9.33333 16.0556L26 16.0556M9.33333 16.0556C9.33333 18.3568 7.46785 20.2223 5.16666 20.2223C2.86548 20.2223 1 18.3568 1 16.0556C1 13.7544 2.86548 11.8889 5.16666 11.8889C7.46785 11.8889 9.33333 13.7544 9.33333 16.0556Z" stroke="white" stroke-width="1.5" stroke-linecap="round" stroke-linejoin="round"/>
</svg>
