<svg width="26" height="20" viewBox="0 0 26 20" fill="none" xmlns="http://www.w3.org/2000/svg">
<path d="M1.42773 4.85714L16.8563 4.85714M16.8563 4.85714C16.8563 6.98739 18.5832 8.71429 20.7135 8.71429C22.8437 8.71429 24.5706 6.98738 24.5706 4.85714C24.5706 2.7269 22.8437 1 20.7135 1C18.5832 1 16.8563 2.7269 16.8563 4.85714ZM9.14202 15.1429L24.5706 15.1429M9.14202 15.1429C9.14202 17.2731 7.41512 19 5.28488 19C3.15464 19 1.42773 17.2731 1.42773 15.1429C1.42773 13.0126 3.15464 11.2857 5.28488 11.2857C7.41512 11.2857 9.14202 13.0126 9.14202 15.1429Z" stroke="black" stroke-width="2" stroke-linecap="round" stroke-linejoin="round"/>
</svg>
