<svg width="56" height="55" viewBox="0 0 56 55" fill="none" xmlns="http://www.w3.org/2000/svg">
<rect x="0.199219" width="55" height="55" rx="27.5" fill="#F31816"/>
<path d="M38.1879 16.9619L31.5879 23.5619M31.5879 16.9619L38.1879 23.5619M26.3376 28.9113C25.0159 27.5896 23.9722 26.095 23.2066 24.5005C23.1407 24.3633 23.1078 24.2947 23.0825 24.2079C22.9926 23.8996 23.0572 23.5209 23.2442 23.2597C23.2968 23.1862 23.3597 23.1233 23.4854 22.9976C23.87 22.613 24.0623 22.4207 24.188 22.2274C24.6621 21.4982 24.6621 20.5582 24.188 19.829C24.0623 19.6356 23.87 19.4434 23.4854 19.0588L23.2711 18.8444C22.6865 18.2598 22.3942 17.9675 22.0803 17.8088C21.456 17.493 20.7187 17.493 20.0944 17.8088C19.7804 17.9675 19.4881 18.2598 18.9036 18.8444L18.7302 19.0178C18.1476 19.6004 17.8563 19.8917 17.6338 20.2877C17.3869 20.7272 17.2094 21.4097 17.2109 21.9138C17.2123 22.368 17.3004 22.6785 17.4766 23.2994C18.4237 26.6361 20.2106 29.7847 22.8374 32.4115C25.4642 35.0382 28.6128 36.8252 31.9495 37.7722C32.5704 37.9485 32.8809 38.0366 33.3351 38.0379C33.8391 38.0394 34.5217 37.8619 34.9611 37.6151C35.3572 37.3926 35.6485 37.1013 36.2311 36.5187L36.4044 36.3453C36.989 35.7607 37.2813 35.4684 37.4401 35.1545C37.7559 34.5302 37.7559 33.7929 37.4401 33.1686C37.2813 32.8547 36.989 32.5624 36.4044 31.9778L36.1901 31.7634C35.8055 31.3789 35.6132 31.1866 35.4199 31.0609C34.6907 30.5868 33.7507 30.5868 33.0215 31.0609C32.8281 31.1866 32.6358 31.3789 32.2513 31.7634C32.1255 31.8892 32.0627 31.9521 31.9892 32.0047C31.728 32.1917 31.3493 32.2563 31.0409 32.1664C30.9541 32.1411 30.8856 32.1081 30.7484 32.0423C29.1538 31.2767 27.6593 30.233 26.3376 28.9113Z" stroke="white" stroke-width="1.65" stroke-linecap="round" stroke-linejoin="round"/>
</svg>
