<svg width="43" height="31" viewBox="0 0 43 31" fill="none" xmlns="http://www.w3.org/2000/svg">
<path d="M41.4062 9.56599C41.4062 8.35436 41.4063 7.74854 41.1667 7.46801C40.9588 7.2246 40.6469 7.09543 40.3278 7.12054C39.96 7.14949 39.5316 7.57786 38.6749 8.43462L31.4062 15.7032L38.6749 22.9719C39.5316 23.8286 39.96 24.257 40.3278 24.286C40.6469 24.3111 40.9588 24.1819 41.1667 23.9385C41.4063 23.658 41.4062 23.0521 41.4062 21.8405V9.56599Z" stroke="white" stroke-width="2" stroke-linecap="round" stroke-linejoin="round"/>
<path d="M1.40625 11.3032C1.40625 7.94293 1.40625 6.26277 2.06021 4.9793C2.63545 3.85033 3.55333 2.93245 4.68231 2.35721C5.96578 1.70325 7.64593 1.70325 11.0063 1.70325H21.8062C25.1666 1.70325 26.8467 1.70325 28.1302 2.35721C29.2592 2.93245 30.177 3.85033 30.7523 4.9793C31.4062 6.26277 31.4062 7.94293 31.4062 11.3032V20.1032C31.4062 23.4636 31.4062 25.1437 30.7523 26.4272C30.177 27.5562 29.2592 28.474 28.1302 29.0493C26.8467 29.7032 25.1666 29.7032 21.8062 29.7032H11.0062C7.64593 29.7032 5.96578 29.7032 4.68231 29.0493C3.55333 28.474 2.63545 27.5562 2.06021 26.4272C1.40625 25.1437 1.40625 23.4636 1.40625 20.1032V11.3032Z" stroke="white" stroke-width="2" stroke-linecap="round" stroke-linejoin="round"/>
</svg>
