<svg width="55" height="53" viewBox="0 0 55 53" fill="none" xmlns="http://www.w3.org/2000/svg">
<path d="M1 18.1178C1 17.1775 1 16.7073 1.03874 16.3113C1.41234 12.4918 4.39536 9.4703 8.16616 9.09187C8.55712 9.05263 9.04635 9.05263 10.0248 9.05263C10.4018 9.05263 10.5903 9.05263 10.7504 9.04281C12.7941 8.91744 14.5838 7.61088 15.3475 5.68663C15.4073 5.53593 15.4632 5.36606 15.575 5.02632C15.6868 4.68657 15.7427 4.5167 15.8025 4.366C16.5662 2.44175 18.3559 1.13519 20.3996 1.00982C20.5597 1 20.7365 1 21.09 1H33.91C34.2635 1 34.4403 1 34.6004 1.00982C36.6441 1.13519 38.4338 2.44175 39.1975 4.366C39.2573 4.5167 39.3132 4.68657 39.425 5.02632C39.5368 5.36606 39.5927 5.53593 39.6525 5.68663C40.4162 7.61088 42.2059 8.91744 44.2496 9.04281C44.4097 9.05263 44.5982 9.05263 44.9752 9.05263C45.9537 9.05263 46.4429 9.05263 46.8338 9.09187C50.6046 9.4703 53.5877 12.4918 53.9613 16.3113C54 16.7073 54 17.1775 54 18.1178V39.1158C54 43.6257 54 45.8806 53.1335 47.6032C52.3713 49.1184 51.1551 50.3503 49.6592 51.1223C47.9586 52 45.7324 52 41.28 52H13.72C9.26758 52 7.04137 52 5.34078 51.1223C3.84489 50.3503 2.62869 49.1184 1.8665 47.6032C1 45.8806 1 43.6257 1 39.1158V18.1178Z" stroke="#BBBBBB" stroke-width="2" stroke-linecap="round" stroke-linejoin="round"/>
<path d="M27.5 39.9211C33.3542 39.9211 38.1 35.114 38.1 29.1842C38.1 23.2544 33.3542 18.4474 27.5 18.4474C21.6458 18.4474 16.9 23.2544 16.9 29.1842C16.9 35.114 21.6458 39.9211 27.5 39.9211Z" stroke="#BBBBBB" stroke-width="2" stroke-linecap="round" stroke-linejoin="round"/>
</svg>
