<svg width="30" height="30" viewBox="0 0 30 30" fill="none" xmlns="http://www.w3.org/2000/svg">
<path d="M5 11.2018C5 9.70963 6.20963 8.5 7.70178 8.5C8.47706 8.5 9.16537 8.0039 9.41053 7.2684L9.5 7C9.54219 6.87343 9.56329 6.81014 9.58586 6.754C9.87405 6.03712 10.5494 5.55037 11.3206 5.50366C11.381 5.5 11.4477 5.5 11.5811 5.5H18.4189C18.5523 5.5 18.619 5.5 18.6794 5.50366C19.4506 5.55037 20.126 6.03712 20.4141 6.754C20.4367 6.81014 20.4578 6.87343 20.5 7L20.5895 7.2684C20.8346 8.0039 21.5229 8.5 22.2982 8.5C23.7904 8.5 25 9.70963 25 11.2018V19.7C25 21.3802 25 22.2202 24.673 22.862C24.3854 23.4265 23.9265 23.8854 23.362 24.173C22.7202 24.5 21.8802 24.5 20.2 24.5H9.8C8.11984 24.5 7.27976 24.5 6.63803 24.173C6.07354 23.8854 5.6146 23.4265 5.32698 22.862C5 22.2202 5 21.3802 5 19.7V11.2018Z" stroke="black" stroke-width="1.5" stroke-linecap="round" stroke-linejoin="round"/>
<path d="M15 20C17.4853 20 19.5 17.9853 19.5 15.5C19.5 13.0147 17.4853 11 15 11C12.5147 11 10.5 13.0147 10.5 15.5C10.5 17.9853 12.5147 20 15 20Z" stroke="black" stroke-width="1.5" stroke-linecap="round" stroke-linejoin="round"/>
</svg>
