<svg width="32" height="32" viewBox="0 0 32 32" fill="none" xmlns="http://www.w3.org/2000/svg">
<path d="M2.66699 10.2684C2.66699 8.27885 4.27983 6.66602 6.26936 6.66602C7.30308 6.66602 8.22081 6.00455 8.5477 5.02388L8.66699 4.66602C8.72325 4.49725 8.75137 4.41287 8.78147 4.33802C9.16572 3.38218 10.0662 2.73317 11.0945 2.67089C11.175 2.66602 11.264 2.66602 11.4418 2.66602H20.5588C20.7367 2.66602 20.8256 2.66602 20.9062 2.67089C21.9345 2.73317 22.8349 3.38218 23.2192 4.33802C23.2493 4.41287 23.2774 4.49725 23.3337 4.66602L23.4529 5.02388C23.7798 6.00455 24.6976 6.66602 25.7313 6.66602C27.7208 6.66602 29.3337 8.27885 29.3337 10.2684V21.5993C29.3337 23.8396 29.3337 24.9597 28.8977 25.8153C28.5142 26.568 27.9023 27.1799 27.1496 27.5634C26.294 27.9993 25.1739 27.9993 22.9337 27.9993H9.06699C6.82678 27.9993 5.70668 27.9993 4.85103 27.5634C4.09838 27.1799 3.48646 26.568 3.10297 25.8153C2.66699 24.9597 2.66699 23.8396 2.66699 21.5993V10.2684Z" stroke="#53FAFB" stroke-width="2" stroke-linecap="round" stroke-linejoin="round"/>
<path d="M16.0003 21.9993C19.314 21.9993 22.0003 19.3131 22.0003 15.9993C22.0003 12.6856 19.314 9.99935 16.0003 9.99935C12.6866 9.99935 10.0003 12.6856 10.0003 15.9993C10.0003 19.3131 12.6866 21.9993 16.0003 21.9993Z" stroke="#53FAFB" stroke-width="2" stroke-linecap="round" stroke-linejoin="round"/>
</svg>
