<svg width="21" height="21" viewBox="0 0 21 21" fill="none" xmlns="http://www.w3.org/2000/svg">
<path d="M5.57799 9.70531C5.52619 9.3715 5.49932 9.02953 5.49932 8.68132C5.49932 4.99942 8.50372 2.01465 12.2098 2.01465C15.916 2.01465 18.9204 4.99942 18.9204 8.68132C18.9204 9.51304 18.7671 10.3092 18.487 11.0434C18.4288 11.1959 18.3997 11.2721 18.3865 11.3317C18.3734 11.3906 18.3684 11.4321 18.367 11.4925C18.3655 11.5535 18.3738 11.6206 18.3903 11.7549L18.7258 14.4801C18.7621 14.7751 18.7803 14.9226 18.7312 15.0298C18.6882 15.1238 18.6118 15.1984 18.5169 15.2392C18.4086 15.2858 18.2615 15.2643 17.9674 15.2212L15.3131 14.8321C15.1745 14.8118 15.1052 14.8016 15.0421 14.802C14.9796 14.8023 14.9364 14.8069 14.8753 14.8198C14.8135 14.8328 14.7346 14.8623 14.5768 14.9214C13.8407 15.1971 13.043 15.348 12.2098 15.348C11.8614 15.348 11.5191 15.3216 11.1849 15.2707M6.859 18.6813C9.32975 18.6813 11.3327 16.6293 11.3327 14.098C11.3327 11.5667 9.32975 9.51465 6.859 9.51465C4.38825 9.51465 2.38531 11.5667 2.38531 14.098C2.38531 14.6068 2.46625 15.0963 2.61564 15.5536C2.67879 15.7469 2.71037 15.8436 2.72073 15.9096C2.73155 15.9785 2.73344 16.0173 2.72942 16.0869C2.72556 16.1536 2.70886 16.2291 2.67547 16.3799L2.16602 18.6813L4.66168 18.3405C4.7979 18.3219 4.86601 18.3126 4.92549 18.313C4.98812 18.3134 5.02135 18.3168 5.08277 18.329C5.1411 18.3407 5.22782 18.3713 5.40124 18.4325C5.85818 18.5937 6.34861 18.6813 6.859 18.6813Z" stroke="#50FFFF" stroke-width="1.5" stroke-linecap="round" stroke-linejoin="round"/>
<circle cx="17.5" cy="3.34766" r="3" fill="#53FAFB"/>
</svg>
