<svg width="40" height="40" viewBox="0 0 40 40" fill="none" xmlns="http://www.w3.org/2000/svg">
<path d="M14.3693 19.3059C14.3105 18.9454 14.2801 18.5761 14.2801 18.2C14.2801 14.2235 17.6872 11 21.89 11C26.0929 11 29.5 14.2235 29.5 18.2C29.5 19.0983 29.3261 19.9581 29.0085 20.7511C28.9426 20.9157 28.9096 20.9981 28.8946 21.0624C28.8798 21.1261 28.874 21.1709 28.8724 21.2361C28.8708 21.3019 28.8802 21.3745 28.8989 21.5195L29.2794 24.4627C29.3205 24.7813 29.3411 24.9406 29.2855 25.0564C29.2367 25.1579 29.1501 25.2385 29.0425 25.2826C28.9196 25.3329 28.7529 25.3096 28.4194 25.263L25.4092 24.8428C25.252 24.8209 25.1734 24.8099 25.1019 24.8103C25.031 24.8107 24.9821 24.8157 24.9128 24.8295C24.8427 24.8436 24.7532 24.8755 24.5743 24.9393C23.7395 25.2371 22.8349 25.4 21.89 25.4C21.4948 25.4 21.1067 25.3715 20.7277 25.3165M15.822 29C18.6239 29 20.8953 26.7838 20.8953 24.05C20.8953 21.3162 18.6239 19.1 15.822 19.1C13.0201 19.1 10.7487 21.3162 10.7487 24.05C10.7487 24.5995 10.8405 25.1281 11.0099 25.6221C11.0815 25.8308 11.1173 25.9352 11.1291 26.0065C11.1413 26.081 11.1435 26.1228 11.1389 26.198C11.1345 26.2701 11.1156 26.3516 11.0777 26.5145L10.5 29L13.3302 28.6319C13.4846 28.6118 13.5619 28.6018 13.6293 28.6022C13.7004 28.6027 13.738 28.6063 13.8077 28.6195C13.8738 28.6321 13.9722 28.6652 14.1689 28.7313C14.687 28.9054 15.2432 29 15.822 29Z" stroke="black" stroke-width="1.5" stroke-linecap="round" stroke-linejoin="round"/>
</svg>
