<svg width="20" height="20" viewBox="0 0 20 20" fill="none" xmlns="http://www.w3.org/2000/svg">
<path d="M15.6437 3.02919C15.8421 3.50912 16.223 3.8906 16.7026 4.08976L18.3844 4.7864C18.8643 4.98521 19.2456 5.36654 19.4444 5.8465C19.6432 6.32647 19.6432 6.86575 19.4444 7.34572L18.7483 9.02634C18.5494 9.50651 18.5492 10.0463 18.7489 10.5263L19.4438 12.2064C19.5424 12.4441 19.5931 12.6989 19.5932 12.9563C19.5932 13.2136 19.5426 13.4685 19.4441 13.7062C19.3456 13.944 19.2013 14.16 19.0193 14.3419C18.8373 14.5239 18.6212 14.6681 18.3834 14.7665L16.7029 15.4627C16.223 15.6611 15.8415 16.042 15.6424 16.5217L14.9457 18.2035C14.7469 18.6835 14.3656 19.0648 13.8857 19.2636C13.4057 19.4624 12.8665 19.4624 12.3865 19.2636L10.706 18.5675C10.226 18.3691 9.68693 18.3695 9.20726 18.5686L7.5255 19.2642C7.04582 19.4626 6.50702 19.4624 6.02747 19.2638C5.54791 19.0651 5.16681 18.6842 4.96787 18.2048L4.27105 16.5224C4.07262 16.0425 3.69172 15.661 3.21211 15.4619L1.53035 14.7652C1.05061 14.5665 0.669404 14.1854 0.47053 13.7057C0.271656 13.2261 0.271386 12.687 0.46978 12.2071L1.16589 10.5265C1.3642 10.0465 1.3638 9.50744 1.16476 9.02776L0.469653 7.34473C0.3711 7.10701 0.320354 6.8522 0.320313 6.59486C0.320271 6.33752 0.370936 6.08269 0.469413 5.84494C0.567889 5.60718 0.712247 5.39117 0.894238 5.20923C1.07623 5.02729 1.29228 4.883 1.53006 4.78459L3.21062 4.08846C3.69011 3.89019 4.07135 3.50976 4.27065 3.03068L4.96726 1.34886C5.16606 0.868894 5.54738 0.487563 6.02733 0.288755C6.50727 0.0899464 7.04654 0.0899464 7.52649 0.288755L9.20704 0.98489C9.687 1.18321 10.2261 1.1828 10.7057 0.983764L12.3882 0.289834C12.8681 0.0911376 13.4072 0.0911782 13.8871 0.289947C14.3669 0.488716 14.7482 0.869938 14.947 1.34978L15.6439 3.0321L15.6437 3.02919Z" fill="#53FAFB"/>
<path d="M7.06445 9.77634L8.99177 11.7037L11.16 9.53542L13.3282 7.36719" stroke="black" stroke-width="2.70538" stroke-linecap="round" stroke-linejoin="round"/>
</svg>
