<svg width="19" height="17" viewBox="0 0 19 17" fill="none" xmlns="http://www.w3.org/2000/svg">
<path d="M14.5091 11.6974C15.7224 12.3069 16.7626 13.285 17.5218 14.508C17.6722 14.7502 17.7474 14.8713 17.7734 15.039C17.8262 15.3798 17.5931 15.7988 17.2758 15.9336C17.1196 16 16.9439 16 16.5925 16M12.8425 8.1102C14.0772 7.49657 14.9258 6.22238 14.9258 4.75C14.9258 3.27762 14.0772 2.00343 12.8425 1.3898M11.1758 4.75C11.1758 6.82107 9.49688 8.5 7.42581 8.5C5.35474 8.5 3.67581 6.82107 3.67581 4.75C3.67581 2.67893 5.35474 1 7.42581 1C9.49688 1 11.1758 2.67893 11.1758 4.75ZM1.64183 14.282C2.97042 12.2871 5.06695 11 7.42581 11C9.78466 11 11.8812 12.2871 13.2098 14.282C13.5008 14.719 13.6464 14.9375 13.6296 15.2166C13.6166 15.4339 13.4741 15.7 13.3004 15.8313C13.0774 16 12.7707 16 12.1572 16H2.69444C2.08095 16 1.77421 16 1.55117 15.8313C1.37751 15.7 1.23505 15.4339 1.222 15.2166C1.20525 14.9375 1.35078 14.719 1.64183 14.282Z" stroke="#50FFFF" stroke-width="1.5" stroke-linecap="round" stroke-linejoin="round"/>
</svg>
