<svg width="19" height="17" viewBox="0 0 19 17" fill="none" xmlns="http://www.w3.org/2000/svg">
<path d="M14.5091 11.5451C15.7224 12.1545 16.7626 13.1326 17.5218 14.3557C17.6722 14.5979 17.7474 14.719 17.7734 14.8867C17.8262 15.2275 17.5931 15.6464 17.2758 15.7813C17.1196 15.8477 16.9439 15.8477 16.5925 15.8477M12.8425 7.95786C14.0772 7.34423 14.9258 6.07004 14.9258 4.59766C14.9258 3.12527 14.0772 1.85108 12.8425 1.23746M11.1758 4.59766C11.1758 6.66872 9.49688 8.34766 7.42581 8.34766C5.35474 8.34766 3.67581 6.66872 3.67581 4.59766C3.67581 2.52659 5.35474 0.847656 7.42581 0.847656C9.49688 0.847656 11.1758 2.52659 11.1758 4.59766ZM1.64183 14.1296C2.97042 12.1348 5.06695 10.8477 7.42581 10.8477C9.78466 10.8477 11.8812 12.1348 13.2098 14.1296C13.5008 14.5666 13.6464 14.7851 13.6296 15.0643C13.6166 15.2816 13.4741 15.5476 13.3004 15.679C13.0774 15.8477 12.7707 15.8477 12.1572 15.8477H2.69444C2.08095 15.8477 1.77421 15.8477 1.55117 15.679C1.37751 15.5476 1.23505 15.2816 1.222 15.0643C1.20525 14.7851 1.35078 14.5666 1.64183 14.1296Z" stroke="white" stroke-width="1.5" stroke-linecap="round" stroke-linejoin="round"/>
</svg>
