<svg width="37" height="37" viewBox="0 0 37 37" fill="none" xmlns="http://www.w3.org/2000/svg">
<rect x="0.455078" y="0.820312" width="35.75" height="35.75" rx="17.875" fill="#3FA12F"/>
<path d="M13.2446 18.0885C13.1915 17.7735 13.164 17.4507 13.164 17.1221C13.164 13.6471 16.2412 10.8301 20.037 10.8301C23.8329 10.8301 26.91 13.6471 26.91 17.1221C26.91 17.9071 26.753 18.6585 26.4661 19.3514C26.4065 19.4953 26.3767 19.5673 26.3632 19.6235C26.3498 19.6791 26.3446 19.7183 26.3432 19.7753C26.3417 19.8328 26.3502 19.8962 26.3671 20.0229L26.7107 22.595C26.7479 22.8734 26.7665 23.0126 26.7163 23.1138C26.6722 23.2025 26.594 23.2729 26.4968 23.3114C26.3858 23.3554 26.2352 23.3351 25.934 23.2944L23.2153 22.9272C23.0734 22.908 23.0024 22.8984 22.9378 22.8987C22.8738 22.8991 22.8296 22.9034 22.767 22.9156C22.7037 22.9278 22.6229 22.9557 22.4613 23.0115C21.7074 23.2717 20.8904 23.4141 20.037 23.4141C19.6801 23.4141 19.3295 23.3892 18.9872 23.3412M14.5566 26.5601C17.0872 26.5601 19.1386 24.6234 19.1386 22.2343C19.1386 19.8453 17.0872 17.9086 14.5566 17.9086C12.026 17.9086 9.97461 19.8453 9.97461 22.2343C9.97461 22.7146 10.0575 23.1765 10.2105 23.6081C10.2752 23.7906 10.3075 23.8818 10.3181 23.9441C10.3292 24.0092 10.3312 24.0457 10.327 24.1115C10.3231 24.1745 10.306 24.2457 10.2718 24.388L9.75 26.5601L12.3061 26.2384C12.4456 26.2208 12.5154 26.2121 12.5763 26.2124C12.6404 26.2128 12.6745 26.2161 12.7374 26.2276C12.7971 26.2386 12.8859 26.2675 13.0636 26.3252C13.5316 26.4774 14.0339 26.5601 14.5566 26.5601Z" stroke="white" stroke-width="1.43" stroke-linecap="round" stroke-linejoin="round"/>
</svg>
