<svg width="14" height="14" viewBox="0 0 14 14" fill="none" xmlns="http://www.w3.org/2000/svg">
<path d="M3.005 8.60305C2.45985 8.60305 2.18727 8.60305 1.97226 8.51399C1.68558 8.39524 1.45781 8.16747 1.33906 7.88079C1.25 7.66577 1.25 7.3932 1.25 6.84805V2.87005C1.25 2.21479 1.25 1.88715 1.37752 1.63688C1.48969 1.41673 1.66868 1.23774 1.88883 1.12557C2.13911 0.998047 2.46674 0.998047 3.122 0.998047H7.1C7.64515 0.998047 7.91773 0.998047 8.13274 1.08711C8.41942 1.20586 8.64719 1.43362 8.76594 1.72031C8.855 1.93532 8.855 2.2079 8.855 2.75305M7.217 12.698H11.078C11.7333 12.698 12.0609 12.698 12.3112 12.5705C12.5313 12.4584 12.7103 12.2794 12.8225 12.0592C12.95 11.8089 12.95 11.4813 12.95 10.826V6.96505C12.95 6.30979 12.95 5.98215 12.8225 5.73188C12.7103 5.51173 12.5313 5.33274 12.3112 5.22057C12.0609 5.09305 11.7333 5.09305 11.078 5.09305H7.217C6.56174 5.09305 6.23411 5.09305 5.98383 5.22057C5.76368 5.33274 5.58469 5.51173 5.47252 5.73188C5.345 5.98215 5.345 6.30979 5.345 6.96505V10.826C5.345 11.4813 5.345 11.8089 5.47252 12.0592C5.58469 12.2794 5.76368 12.4584 5.98383 12.5705C6.23411 12.698 6.56174 12.698 7.217 12.698Z" stroke="white" stroke-width="0.9" stroke-linecap="round" stroke-linejoin="round"/>
</svg>
