<svg width="30" height="30" viewBox="0 0 30 30" fill="none" xmlns="http://www.w3.org/2000/svg">
<path d="M24 6H6M24 24H6M8 15C8 14.0681 8 13.6022 8.15224 13.2346C8.35523 12.7446 8.74458 12.3552 9.23463 12.1522C9.60218 12 10.0681 12 11 12L19 12C19.9319 12 20.3978 12 20.7654 12.1522C21.2554 12.3552 21.6448 12.7446 21.8478 13.2346C22 13.6022 22 14.0681 22 15C22 15.9319 22 16.3978 21.8478 16.7654C21.6448 17.2554 21.2554 17.6448 20.7654 17.8478C20.3978 18 19.9319 18 19 18L11 18C10.0681 18 9.60218 18 9.23463 17.8478C8.74458 17.6448 8.35523 17.2554 8.15224 16.7654C8 16.3978 8 15.9319 8 15Z" stroke="black" stroke-width="1.5" stroke-linecap="round" stroke-linejoin="round"/>
</svg>
