<svg width="46" height="45" viewBox="0 0 46 45" fill="none" xmlns="http://www.w3.org/2000/svg">
<circle cx="23.1568" cy="22.44" r="22.44" fill="#53FAFB"/>
<path d="M31.5722 14.0249L24.0922 21.5049M21.2872 15.8949H19.2302C17.6592 15.8949 16.8738 15.8949 16.2737 16.2006C15.7459 16.4696 15.3168 16.8987 15.0479 17.4265C14.7422 18.0265 14.7422 18.812 14.7422 20.3829V26.3669C14.7422 27.9378 14.7422 28.7233 15.0479 29.3233C15.3168 29.8511 15.7459 30.2803 16.2737 30.5492C16.8738 30.8549 17.6592 30.8549 19.2302 30.8549H25.2142C26.7851 30.8549 27.5706 30.8549 28.1706 30.5492C28.6984 30.2803 29.1275 29.8511 29.3965 29.3233C29.7022 28.7233 29.7022 27.9378 29.7022 26.3669V24.3099" stroke="black" stroke-width="1.32" stroke-linecap="round" stroke-linejoin="round"/>
</svg>
