<svg width="32" height="32" viewBox="0 0 32 32" fill="none" xmlns="http://www.w3.org/2000/svg">
<g clip-path="url(#clip0_2443_19947)">
<path d="M16 32C12.8355 32 9.74207 31.0616 7.11088 29.3035C4.4797 27.5454 2.42894 25.0466 1.21793 22.1229C0.00693258 19.1993 -0.309921 15.9823 0.307443 12.8786C0.924806 9.77487 2.44866 6.92394 4.6863 4.6863C6.92394 2.44866 9.77487 0.924806 12.8786 0.307443C15.9823 -0.309921 19.1993 0.00693258 22.1229 1.21793C25.0466 2.42894 27.5454 4.4797 29.3035 7.11088C31.0616 9.74207 32 12.8355 32 16C31.9954 20.2421 30.3082 24.3091 27.3087 27.3087C24.3091 30.3082 20.2421 31.9954 16 32ZM16 2.66667C13.3629 2.66667 10.7851 3.44866 8.5924 4.91375C6.39975 6.37883 4.69078 8.46121 3.68161 10.8976C2.67245 13.3339 2.4084 16.0148 2.92287 18.6012C3.43734 21.1876 4.70722 23.5634 6.57192 25.4281C8.43662 27.2928 10.8124 28.5627 13.3988 29.0771C15.9852 29.5916 18.6661 29.3276 21.1025 28.3184C23.5388 27.3092 25.6212 25.6003 27.0863 23.4076C28.5514 21.215 29.3333 18.6371 29.3333 16C29.3295 12.465 27.9235 9.07585 25.4238 6.5762C22.9242 4.07656 19.535 2.67056 16 2.66667Z" fill="#53FAFB"/>
<path d="M16 25.3333C15.6464 25.3333 15.3072 25.1929 15.0572 24.9428C14.8071 24.6928 14.6667 24.3536 14.6667 24V8.00001C14.6667 7.64638 14.8071 7.30724 15.0572 7.0572C15.3072 6.80715 15.6464 6.66667 16 6.66667C16.3536 6.66667 16.6927 6.80715 16.9428 7.0572C17.1928 7.30724 17.3333 7.64638 17.3333 8.00001V24C17.3333 24.3536 17.1928 24.6928 16.9428 24.9428C16.6927 25.1929 16.3536 25.3333 16 25.3333Z" fill="#53FAFB"/>
<path d="M24 17.3333H7.99999C7.64637 17.3333 7.30723 17.1929 7.05718 16.9428C6.80713 16.6928 6.66666 16.3536 6.66666 16C6.66666 15.6464 6.80713 15.3072 7.05718 15.0572C7.30723 14.8071 7.64637 14.6667 7.99999 14.6667H24C24.3536 14.6667 24.6928 14.8071 24.9428 15.0572C25.1928 15.3072 25.3333 15.6464 25.3333 16C25.3333 16.3536 25.1928 16.6928 24.9428 16.9428C24.6928 17.1929 24.3536 17.3333 24 17.3333Z" fill="#53FAFB"/>
</g>
<defs>
<clipPath id="clip0_2443_19947">
<rect width="32" height="32" fill="white"/>
</clipPath>
</defs>
</svg>
