<svg width="37" height="37" viewBox="0 0 37 37" fill="none" xmlns="http://www.w3.org/2000/svg">
<rect x="0.455078" y="0.530273" width="35.75" height="35.75" rx="17.875" fill="#3FA12F"/>
<path d="M15.5124 17.9688L17.3907 19.8472L21.6171 15.6208M25.8435 18.4384C25.8435 23.0484 20.8151 26.4013 18.9855 27.4686C18.7776 27.5899 18.6736 27.6506 18.5269 27.682C18.413 27.7065 18.2469 27.7065 18.133 27.682C17.9863 27.6506 17.8823 27.5899 17.6744 27.4686C15.8448 26.4013 10.8164 23.0484 10.8164 18.4384V13.9468C10.8164 13.1959 10.8164 12.8205 10.9392 12.4977C11.0477 12.2126 11.224 11.9582 11.4529 11.7566C11.7119 11.5282 12.0635 11.3964 12.7665 11.1328L17.8023 9.24435C17.9976 9.17113 18.0952 9.13452 18.1956 9.12001C18.2847 9.10713 18.3752 9.10713 18.4643 9.12001C18.5647 9.13452 18.6623 9.17113 18.8576 9.24435L23.8933 11.1328C24.5964 11.3964 24.948 11.5282 25.207 11.7566C25.4359 11.9582 25.6122 12.2126 25.7207 12.4977C25.8435 12.8205 25.8435 13.1959 25.8435 13.9468V18.4384Z" stroke="white" stroke-width="1.43" stroke-linecap="round" stroke-linejoin="round"/>
</svg>
