<svg width="4" height="16" viewBox="0 0 4 16" fill="none" xmlns="http://www.w3.org/2000/svg">
<path d="M1.875 7.12495C1.39174 7.12495 0.999991 7.51671 0.99999 7.99996C0.99999 8.48321 1.39174 8.87496 1.875 8.87496C2.35825 8.87496 2.75 8.48321 2.75 7.99996C2.75 7.51671 2.35825 7.12495 1.875 7.12495Z" stroke="white" stroke-width="1.38" stroke-linecap="round" stroke-linejoin="round"/>
<path d="M1.875 13.25C1.39174 13.25 0.99999 13.6417 0.99999 14.125C0.99999 14.6082 1.39174 15 1.87499 15C2.35825 15 2.75 14.6082 2.75 14.125C2.75 13.6417 2.35825 13.25 1.875 13.25Z" stroke="white" stroke-width="1.38" stroke-linecap="round" stroke-linejoin="round"/>
<path d="M1.875 0.999919C1.39174 0.999919 0.999991 1.39167 0.999991 1.87492C0.999991 2.35818 1.39174 2.74993 1.875 2.74993C2.35825 2.74993 2.75 2.35818 2.75 1.87492C2.75 1.39167 2.35825 0.999919 1.875 0.999919Z" stroke="white" stroke-width="1.38" stroke-linecap="round" stroke-linejoin="round"/>
</svg>
