<svg width="40" height="40" viewBox="0 0 40 40" fill="none" xmlns="http://www.w3.org/2000/svg">
<circle cx="20" cy="20" r="20" fill="white" fill-opacity="0.2"/>
<path d="M19.5615 19.9312C19.2513 19.9312 18.9999 20.1826 18.9999 20.4927C18.9999 20.8029 19.2513 21.0543 19.5615 21.0543C19.8716 21.0543 20.123 20.8029 20.123 20.4927C20.123 20.1826 19.8716 19.9312 19.5615 19.9312Z" stroke="white" stroke-width="1.12724" stroke-linecap="round" stroke-linejoin="round"/>
<path d="M19.5615 23.8622C19.2513 23.8622 18.9999 24.1136 18.9999 24.4238C18.9999 24.7339 19.2513 24.9854 19.5615 24.9854C19.8716 24.9854 20.123 24.7339 20.123 24.4238C20.123 24.1136 19.8716 23.8622 19.5615 23.8622Z" stroke="white" stroke-width="1.12724" stroke-linecap="round" stroke-linejoin="round"/>
<path d="M19.5615 16.0001C19.2513 16.0001 18.9999 16.2516 18.9999 16.5617C18.9999 16.8719 19.2513 17.1233 19.5615 17.1233C19.8716 17.1233 20.123 16.8719 20.123 16.5617C20.123 16.2516 19.8716 16.0001 19.5615 16.0001Z" stroke="white" stroke-width="1.12724" stroke-linecap="round" stroke-linejoin="round"/>
</svg>
