<svg width="37" height="36" viewBox="0 0 37 36" fill="none" xmlns="http://www.w3.org/2000/svg">
<rect x="0.455078" y="0.129883" width="35.75" height="35.75" rx="17.875" fill="#37AC9E"/>
<path d="M10.608 21.2228V14.1443C10.608 13.2433 10.608 12.7928 10.795 12.4487C10.9596 12.146 11.2221 11.8999 11.545 11.7457C11.912 11.5703 12.3926 11.5703 13.3536 11.5703H23.3064C24.2674 11.5703 24.748 11.5703 25.115 11.7457C25.4379 11.8999 25.7004 12.146 25.865 12.4487C26.052 12.7928 26.052 13.2433 26.052 14.1443V21.2228H21.4726C21.2628 21.2228 21.1578 21.2228 21.0591 21.245C20.9716 21.2647 20.8879 21.2972 20.8111 21.3413C20.7245 21.3911 20.6503 21.4607 20.5019 21.5998L20.4481 21.6502C20.2997 21.7894 20.2255 21.8589 20.1389 21.9087C20.0621 21.9528 19.9784 21.9853 19.8909 22.005C19.7922 22.0272 19.6872 22.0272 19.4774 22.0272H17.1826C16.9728 22.0272 16.8678 22.0272 16.7691 22.005C16.6816 21.9853 16.5979 21.9528 16.5211 21.9087C16.4345 21.8589 16.3603 21.7894 16.2119 21.6502L16.1581 21.5998C16.0097 21.4607 15.9355 21.3911 15.8489 21.3413C15.7721 21.2972 15.6884 21.2647 15.6009 21.245C15.5022 21.2228 15.3972 21.2228 15.1874 21.2228H10.608ZM10.608 21.2228C10.1341 21.2228 9.75 21.5829 9.75 22.0272V22.2953C9.75 22.794 9.75 23.0434 9.80847 23.2479C9.96714 23.8031 10.4297 24.2367 11.0219 24.3855C11.2401 24.4403 11.5061 24.4403 12.038 24.4403H24.622C25.1539 24.4403 25.4199 24.4403 25.6381 24.3855C26.2303 24.2367 26.6929 23.8031 26.8515 23.2479C26.91 23.0434 26.91 22.794 26.91 22.2953C26.91 22.046 26.91 21.9213 26.8808 21.819C26.8014 21.5414 26.5702 21.3246 26.2741 21.2502C26.165 21.2228 26.032 21.2228 25.766 21.2228H25.194" stroke="white" stroke-width="1.43" stroke-linecap="round" stroke-linejoin="round"/>
</svg>
