<svg width="28" height="24" viewBox="0 0 28 24" fill="none" xmlns="http://www.w3.org/2000/svg">
<path d="M1.45198 8.36895H26.048M11.1609 0.75L8.57189 8.36895L13.75 22.9719L18.9281 8.36895L16.3391 0.75M14.5456 22.6704L26.1428 9.01929C26.3393 8.78793 26.4376 8.67225 26.4752 8.54313C26.5083 8.42928 26.5083 8.30862 26.4752 8.19477C26.4376 8.06565 26.3393 7.94997 26.1428 7.71861L20.5332 1.11552C20.419 0.981164 20.362 0.913985 20.292 0.865689C20.23 0.822897 20.1608 0.791119 20.0876 0.771802C20.005 0.75 19.9159 0.75 19.7376 0.75H7.76242C7.58412 0.75 7.49497 0.75 7.41236 0.771802C7.33916 0.791119 7.26999 0.822897 7.20801 0.865689C7.13804 0.913985 7.08097 0.981164 6.96683 1.11552L1.35721 7.71861C1.16066 7.94997 1.06239 8.06564 1.02483 8.19477C0.991723 8.30862 0.991723 8.42928 1.02483 8.54312C1.06239 8.67225 1.16066 8.78793 1.35721 9.01929L12.9544 22.6704C13.2276 22.992 13.3642 23.1528 13.5278 23.2114C13.6713 23.2629 13.8287 23.2629 13.9722 23.2114C14.1358 23.1528 14.2724 22.992 14.5456 22.6704Z" stroke="#50FFFF" stroke-width="1.5" stroke-linecap="round" stroke-linejoin="round"/>
</svg>
