<svg width="19" height="16" viewBox="0 0 19 16" fill="none" xmlns="http://www.w3.org/2000/svg">
<path d="M0.900929 5.5793H17.2983M7.37357 0.5L5.64753 5.5793L9.09961 15.3146L12.5517 5.5793L10.8256 0.5M9.63 15.1136L17.3615 6.01286C17.4925 5.85862 17.558 5.7815 17.5831 5.69542C17.6051 5.61952 17.6051 5.53908 17.5831 5.46318C17.558 5.3771 17.4925 5.29998 17.3615 5.14574L13.6217 0.743682C13.5456 0.654109 13.5076 0.609323 13.4609 0.577126C13.4196 0.548598 13.3735 0.527413 13.3247 0.514534C13.2696 0.5 13.2102 0.5 13.0913 0.5H5.10789C4.98902 0.5 4.92959 0.5 4.87452 0.514534C4.82572 0.527413 4.7796 0.548598 4.73828 0.577126C4.69164 0.609323 4.65359 0.654109 4.5775 0.743682L0.837747 5.14574C0.706716 5.29998 0.6412 5.3771 0.616164 5.46318C0.594091 5.53908 0.594091 5.61952 0.616164 5.69542C0.6412 5.7815 0.706716 5.85862 0.837747 6.01286L8.56922 15.1136C8.75136 15.328 8.84244 15.4352 8.95147 15.4743C9.04714 15.5086 9.15208 15.5086 9.24774 15.4743C9.35678 15.4352 9.44786 15.328 9.63 15.1136Z" stroke="white" stroke-linecap="round" stroke-linejoin="round"/>
</svg>
