<svg width="20" height="17" viewBox="0 0 20 17" fill="none" xmlns="http://www.w3.org/2000/svg">
<path d="M1.44922 3.7793L8.72908 8.8752C9.31859 9.28786 9.61334 9.49418 9.93395 9.5741C10.2171 9.64469 10.5133 9.64469 10.7965 9.5741C11.1172 9.49418 11.4119 9.28786 12.0014 8.87521L19.2813 3.7793M5.72891 15.3701H15.0016C16.4996 15.3701 17.2486 15.3701 17.8208 15.0786C18.3241 14.8222 18.7333 14.413 18.9897 13.9097C19.2813 13.3375 19.2813 12.5885 19.2813 11.0904V5.38419C19.2813 3.88615 19.2813 3.13714 18.9897 2.56496C18.7333 2.06167 18.3241 1.65247 17.8208 1.39603C17.2486 1.10449 16.4996 1.10449 15.0016 1.10449H5.72891C4.23088 1.10449 3.48186 1.10449 2.90969 1.39603C2.40639 1.65247 1.9972 2.06167 1.74076 2.56496C1.44922 3.13714 1.44922 3.88615 1.44922 5.38419V11.0904C1.44922 12.5885 1.44922 13.3375 1.74076 13.9097C1.9972 14.413 2.40639 14.8222 2.90969 15.0786C3.48186 15.3701 4.23088 15.3701 5.72891 15.3701Z" stroke="white" stroke-width="1.42656" stroke-linecap="round" stroke-linejoin="round"/>
</svg>
