<svg width="21" height="19" viewBox="0 0 21 19" fill="none" xmlns="http://www.w3.org/2000/svg">
<path d="M9.07151 3.27405C9.45252 3.21772 9.84557 3.1875 10.2504 3.1875C15.0363 3.1875 18.1768 7.41079 19.2319 9.0814C19.3596 9.2836 19.4235 9.38469 19.4592 9.54063C19.486 9.65774 19.486 9.8425 19.4591 9.9596C19.4234 10.1155 19.3591 10.2173 19.2305 10.4208C18.9494 10.8658 18.5208 11.491 17.953 12.1692M5.30405 4.79535C3.27711 6.17034 1.90105 8.08067 1.26979 9.07995C1.14152 9.283 1.07738 9.38453 1.04163 9.54045C1.01478 9.65756 1.01477 9.84229 1.04161 9.9594C1.07734 10.1153 1.14119 10.2164 1.26888 10.4186C2.32395 12.0892 5.46445 16.3125 10.2504 16.3125C12.1801 16.3125 13.8424 15.6259 15.2083 14.6968M1.81289 1.3125L18.6879 18.1875M8.26165 7.76126C7.75269 8.27022 7.43789 8.97335 7.43789 9.75C7.43789 11.3033 8.69709 12.5625 10.2504 12.5625C11.027 12.5625 11.7302 12.2477 12.2391 11.7387" stroke="white" stroke-width="1.5" stroke-linecap="round" stroke-linejoin="round"/>
</svg>
