<svg width="28" height="26" viewBox="0 0 28 26" fill="none" xmlns="http://www.w3.org/2000/svg">
<path d="M25.9917 13.971C26.3292 13.68 26.4979 13.5345 26.5597 13.3614C26.614 13.2094 26.614 13.0432 26.5597 12.8912C26.4979 12.718 26.3292 12.5725 25.9917 12.2815L14.2834 2.18402C13.7026 1.68309 13.4122 1.43262 13.1663 1.42648C12.9526 1.42115 12.7485 1.51561 12.6134 1.68233C12.4581 1.87416 12.4581 2.25902 12.4581 3.02875V9.00226C9.50748 9.52163 6.80703 11.0259 4.80022 13.2846C2.61234 15.7471 1.4021 18.9339 1.40039 22.2368V23.088C2.8508 21.33 4.66172 19.9081 6.70912 18.9199C8.51419 18.0486 10.4655 17.5325 12.4581 17.3965V23.2238C12.4581 23.9935 12.4581 24.3784 12.6134 24.5702C12.7485 24.7369 12.9526 24.8314 13.1663 24.8261C13.4122 24.8199 13.7026 24.5694 14.2834 24.0685L25.9917 13.971Z" stroke="white" stroke-width="1.8" stroke-linecap="round" stroke-linejoin="round"/>
</svg>
