<svg width="22" height="21" viewBox="0 0 22 21" fill="none" xmlns="http://www.w3.org/2000/svg">
<path d="M8.16578 19.5V12.396C8.16578 11.8583 8.16578 11.5895 8.26878 11.3842C8.35938 11.2035 8.50395 11.0567 8.68176 10.9646C8.88391 10.86 9.14853 10.86 9.67778 10.86H12.3238C12.853 10.86 13.1177 10.86 13.3198 10.9646C13.4976 11.0567 13.6422 11.2035 13.7328 11.3842C13.8358 11.5895 13.8358 11.8583 13.8358 12.396V19.5M1.55078 8.46L10.0936 1.9512C10.4189 1.70333 10.5816 1.5794 10.7602 1.53163C10.9179 1.48946 11.0837 1.48946 11.2413 1.53163C11.42 1.5794 11.5827 1.70333 11.908 1.9512L20.4508 8.46M3.44078 7.02V16.428C3.44078 17.5033 3.44078 18.041 3.64678 18.4517C3.82798 18.8129 4.11712 19.1067 4.47274 19.2907C4.87704 19.5 5.40628 19.5 6.46478 19.5H15.5368C16.5953 19.5 17.1245 19.5 17.5288 19.2907C17.8844 19.1067 18.1736 18.8129 18.3548 18.4517C18.5608 18.041 18.5608 17.5033 18.5608 16.428V7.02L12.8152 2.6424C12.1645 2.14667 11.8392 1.8988 11.4819 1.80325C11.1665 1.71892 10.835 1.71892 10.5197 1.80325C10.1624 1.8988 9.83703 2.14667 9.18638 2.6424L3.44078 7.02Z" stroke="#D4D4D4" stroke-width="1.5" stroke-linecap="round" stroke-linejoin="round"/>
</svg>
