<svg width="22" height="21" viewBox="0 0 22 21" fill="none" xmlns="http://www.w3.org/2000/svg">
<path d="M8.16578 19.3477V12.2437C8.16578 11.706 8.16578 11.4372 8.26878 11.2318C8.35938 11.0512 8.50395 10.9043 8.68176 10.8123C8.88391 10.7077 9.14853 10.7077 9.67778 10.7077H12.3238C12.853 10.7077 13.1177 10.7077 13.3198 10.8123C13.4976 10.9043 13.6422 11.0512 13.7328 11.2318C13.8358 11.4372 13.8358 11.706 13.8358 12.2437V19.3477M1.55078 8.30766L10.0936 1.79886C10.4189 1.55099 10.5816 1.42706 10.7602 1.37928C10.9179 1.33711 11.0837 1.33711 11.2413 1.37928C11.42 1.42706 11.5827 1.55099 11.908 1.79886L20.4508 8.30766M3.44078 6.86766V16.2757C3.44078 17.351 3.44078 17.8886 3.64678 18.2993C3.82798 18.6606 4.11712 18.9543 4.47274 19.1384C4.87704 19.3477 5.40628 19.3477 6.46478 19.3477H15.5368C16.5953 19.3477 17.1245 19.3477 17.5288 19.1384C17.8844 18.9543 18.1736 18.6606 18.3548 18.2993C18.5608 17.8886 18.5608 17.351 18.5608 16.2757V6.86766L12.8152 2.49006C12.1645 1.99432 11.8392 1.74646 11.4819 1.65091C11.1665 1.56657 10.835 1.56657 10.5197 1.65091C10.1624 1.74646 9.83703 1.99432 9.18638 2.49006L3.44078 6.86766Z" stroke="#50FFFF" stroke-width="1.5" stroke-linecap="round" stroke-linejoin="round"/>
</svg>
