<svg width="41" height="42" viewBox="0 0 41 42" fill="none" xmlns="http://www.w3.org/2000/svg">
<rect x="0.0078125" y="0.50293" width="40.9948" height="40.9948" rx="20.4974" fill="#53FAFB"/>
<path d="M25.1576 12.1914L21.9241 15.4096M21.9241 15.4096L25.1576 18.6279M21.9241 15.4096H29.3149M19.3623 22.18C18.2523 21.0751 17.3757 19.8259 16.7327 18.4929C16.6774 18.3783 16.6498 18.321 16.6285 18.2484C16.553 17.9906 16.6073 17.6741 16.7643 17.4558C16.8085 17.3943 16.8613 17.3418 16.9669 17.2367C17.2899 16.9152 17.4514 16.7545 17.557 16.5929C17.9552 15.9833 17.9552 15.1975 17.557 14.588C17.4514 14.4264 17.2899 14.2657 16.9669 13.9442L16.7869 13.765C16.2959 13.2764 16.0505 13.032 15.7868 12.8993C15.2625 12.6353 14.6433 12.6353 14.1189 12.8993C13.8553 13.032 13.6098 13.2764 13.1188 13.765L12.9732 13.91C12.4839 14.3969 12.2393 14.6404 12.0524 14.9715C11.8451 15.3388 11.696 15.9094 11.6973 16.3307C11.6984 16.7104 11.7724 16.9699 11.9204 17.4889C12.7158 20.2781 14.2166 22.9101 16.4227 25.1058C18.6288 27.3015 21.2732 28.7952 24.0756 29.5869C24.597 29.7342 24.8577 29.8079 25.2392 29.809C25.6626 29.8103 26.2358 29.6619 26.6049 29.4555C26.9375 29.2696 27.1821 29.0261 27.6714 28.5391L27.8171 28.3941C28.308 27.9055 28.5535 27.6611 28.6869 27.3987C28.9521 26.8769 28.9521 26.2606 28.6869 25.7387C28.5535 25.4763 28.308 25.232 27.8171 24.7433L27.637 24.5641C27.3141 24.2426 27.1526 24.0819 26.9902 23.9768C26.3778 23.5805 25.5883 23.5805 24.9759 23.9768C24.8135 24.0819 24.652 24.2426 24.329 24.5641C24.2234 24.6692 24.1706 24.7218 24.1089 24.7658C23.8895 24.9221 23.5715 24.9761 23.3125 24.9009C23.2396 24.8798 23.182 24.8522 23.0668 24.7972C21.7276 24.1572 20.4724 23.2848 19.3623 22.18Z" stroke="black" stroke-width="1.3552" stroke-linecap="round" stroke-linejoin="round"/>
</svg>
