<svg width="37" height="37" viewBox="0 0 37 37" fill="none" xmlns="http://www.w3.org/2000/svg">
<rect x="0.884766" y="0.754883" width="35.75" height="35.75" rx="17.875" fill="#E57A18"/>
<path d="M25.9094 16.2462L25.9094 11.4795M25.9094 11.4795H21.1427M25.9094 11.4795L19.5538 17.8351M17.1705 13.0684H15.4227C14.0879 13.0684 13.4205 13.0684 12.9107 13.3281C12.4622 13.5566 12.0976 13.9213 11.8691 14.3697C11.6094 14.8795 11.6094 15.5469 11.6094 16.8817V21.9662C11.6094 23.301 11.6094 23.9684 11.8691 24.4782C12.0976 24.9266 12.4622 25.2912 12.9107 25.5197C13.4205 25.7795 14.0879 25.7795 15.4227 25.7795H20.5072C21.8419 25.7795 22.5093 25.7795 23.0192 25.5197C23.4676 25.2912 23.8322 24.9266 24.0607 24.4782C24.3205 23.9684 24.3205 23.301 24.3205 21.9662V20.2184" stroke="white" stroke-width="1.43" stroke-linecap="round" stroke-linejoin="round"/>
</svg>
