<svg width="36" height="36" viewBox="0 0 36 36" fill="none" xmlns="http://www.w3.org/2000/svg">
<path d="M17.8222 34.9051C27.1171 34.9051 34.6522 27.3701 34.6522 18.0751C34.6522 8.78016 27.1171 1.24512 17.8222 1.24512C8.52723 1.24512 0.992188 8.78016 0.992188 18.0751C0.992188 27.3701 8.52723 34.9051 17.8222 34.9051Z" stroke="white" stroke-width="1.683" stroke-linecap="round" stroke-linejoin="round"/>
<path d="M20.7364 20.0858C20.6177 19.7296 20.5583 19.5515 20.5614 19.4058C20.5646 19.2526 20.5851 19.1723 20.6557 19.0362C20.7228 18.9069 20.9021 18.74 21.2609 18.4061C22.2515 17.4843 22.8712 16.1691 22.8712 14.7091C22.8712 11.9206 20.6107 9.66012 17.8222 9.66012C15.0337 9.66012 12.7732 11.9206 12.7732 14.7091C12.7732 16.1691 13.3928 17.4843 14.3835 18.4061C14.7422 18.74 14.9216 18.9069 14.9887 19.0362C15.0592 19.1723 15.0797 19.2526 15.083 19.4058C15.0861 19.5515 15.0267 19.7296 14.908 20.0858L13.3639 24.7179C13.1645 25.3163 13.0647 25.6154 13.1245 25.8536C13.1769 26.062 13.307 26.2425 13.4882 26.3581C13.6952 26.4901 14.0105 26.4901 14.6412 26.4901H21.0032C21.6338 26.4901 21.9492 26.4901 22.1562 26.3581C22.3374 26.2425 22.4675 26.062 22.5198 25.8536C22.5796 25.6154 22.4799 25.3163 22.2805 24.7179L20.7364 20.0858Z" stroke="white" stroke-width="1.683" stroke-linecap="round" stroke-linejoin="round"/>
</svg>
