<svg width="37" height="37" viewBox="0 0 37 37" fill="none" xmlns="http://www.w3.org/2000/svg">
<rect x="0.455078" y="0.730469" width="35.75" height="35.75" rx="17.875" fill="#A70EB4"/>
<path d="M19.1286 22.9747H25.3978M19.1286 22.9747L17.4568 26.4702M19.1286 22.9747L21.6325 17.7392C21.8343 17.3174 21.9351 17.1064 22.0732 17.0398C22.1932 16.9818 22.3332 16.9818 22.4532 17.0398C22.5912 17.1064 22.6921 17.3174 22.8939 17.7392L25.3978 22.9747M25.3978 22.9747L27.0696 26.4702M9.5918 12.488H14.8351M14.8351 12.488H17.8937M14.8351 12.488V10.7402M17.8937 12.488H20.0785M17.8937 12.488C17.4602 15.0724 16.4541 17.4134 14.9798 19.3781M16.5829 20.353C16.0476 20.1125 15.5016 19.7781 14.9798 19.3781M14.9798 19.3781C13.7978 18.4722 12.7402 17.2303 12.2135 15.9836M14.9798 19.3781C13.5775 21.2469 11.7516 22.7753 9.5918 23.8486" stroke="white" stroke-width="1.43" stroke-linecap="round" stroke-linejoin="round"/>
</svg>
