<svg width="40" height="40" viewBox="0 0 40 40" fill="none" xmlns="http://www.w3.org/2000/svg">
<circle cx="20" cy="20" r="20" fill="white" fill-opacity="0.2"/>
<path d="M27.5 17.5L27.5 12.5M27.5 12.5H22.5M27.5 12.5L20.8333 19.1667M18.3333 14.1667H16.5C15.0999 14.1667 14.3998 14.1667 13.865 14.4392C13.3946 14.6788 13.0122 15.0613 12.7725 15.5317C12.5 16.0665 12.5 16.7665 12.5 18.1667V23.5C12.5 24.9001 12.5 25.6002 12.7725 26.135C13.0122 26.6054 13.3946 26.9878 13.865 27.2275C14.3998 27.5 15.0999 27.5 16.5 27.5H21.8333C23.2335 27.5 23.9335 27.5 24.4683 27.2275C24.9387 26.9878 25.3212 26.6054 25.5608 26.135C25.8333 25.6002 25.8333 24.9001 25.8333 23.5V21.6667" stroke="white" stroke-linecap="round" stroke-linejoin="round"/>
</svg>
