<svg width="17" height="19" viewBox="0 0 17 19" fill="none" xmlns="http://www.w3.org/2000/svg">
<path d="M13.4375 7.875V6C13.4375 3.41117 11.3388 1.3125 8.75 1.3125C6.16117 1.3125 4.0625 3.41117 4.0625 6V7.875M8.75 12.0938V13.9688M5.75 18.1875H11.75C13.3251 18.1875 14.1127 18.1875 14.7143 17.881C15.2436 17.6113 15.6738 17.1811 15.9435 16.6518C16.25 16.0502 16.25 15.2626 16.25 13.6875V12.375C16.25 10.7999 16.25 10.0123 15.9435 9.41065C15.6738 8.88145 15.2436 8.45119 14.7143 8.18154C14.1127 7.875 13.3251 7.875 11.75 7.875H5.75C4.17485 7.875 3.38728 7.875 2.78565 8.18154C2.25645 8.45119 1.82619 8.88145 1.55654 9.41065C1.25 10.0123 1.25 10.7999 1.25 12.375V13.6875C1.25 15.2626 1.25 16.0502 1.55654 16.6518C1.82619 17.1811 2.25645 17.6113 2.78565 17.881C3.38728 18.1875 4.17485 18.1875 5.75 18.1875Z" stroke="white" stroke-width="1.5" stroke-linecap="round" stroke-linejoin="round"/>
</svg>
