<?xml version="1.0" encoding="UTF-8"?>
<!DOCTYPE svg PUBLIC "-//W3C//DTD SVG 1.1//EN" "http://www.w3.org/Graphics/SVG/1.1/DTD/svg11.dtd">
<svg xmlns="http://www.w3.org/2000/svg" version="1.1" width="204px" height="204px" style="shape-rendering:geometricPrecision; text-rendering:geometricPrecision; image-rendering:optimizeQuality; fill-rule:evenodd; clip-rule:evenodd" xmlns:xlink="http://www.w3.org/1999/xlink">
<g><path style="opacity:1" fill="#fcfcfc" d="M -0.5,-0.5 C 67.5,-0.5 135.5,-0.5 203.5,-0.5C 203.5,67.5 203.5,135.5 203.5,203.5C 135.5,203.5 67.5,203.5 -0.5,203.5C -0.5,135.5 -0.5,67.5 -0.5,-0.5 Z"/></g>
<g><path style="opacity:1" fill="#272727" d="M 121.5,2.5 C 122.263,3.26791 123.263,3.76791 124.5,4C 123.906,4.46434 123.239,4.63101 122.5,4.5C 121.833,4.5 121.167,4.5 120.5,4.5C 110.551,3.00206 100.551,2.00206 90.5,1.5C 93.8167,0.834779 97.3167,0.501446 101,0.5C 107.918,0.487253 114.751,1.15392 121.5,2.5 Z"/></g>
<g><path style="opacity:1" fill="#8c8c8c" d="M 85.5,2.5 C 86.9187,1.54885 88.5853,1.21552 90.5,1.5C 100.551,2.00206 110.551,3.00206 120.5,4.5C 110.183,3.77351 99.8496,3.44018 89.5,3.5C 88.4324,2.56552 87.099,2.23219 85.5,2.5 Z"/></g>
<g><path style="opacity:1" fill="#fafafa" d="M 89.5,3.5 C 99.8496,3.44018 110.183,3.77351 120.5,4.5C 121.167,4.5 121.833,4.5 122.5,4.5C 139.242,8.23799 151.242,17.9047 158.5,33.5C 160.161,41.397 160.827,49.397 160.5,57.5C 148.833,57.5 137.167,57.5 125.5,57.5C 125.384,54.1401 125.051,50.8067 124.5,47.5C 120.62,32.5446 110.953,26.7113 95.5,30C 82.9428,34.9426 78.1094,44.1093 81,57.5C 82.0661,64.7997 85.5661,70.633 91.5,75C 109.483,83.3243 127.483,91.6576 145.5,100C 156.618,106.796 163.451,116.629 166,129.5C 169.397,149.551 165.063,167.551 153,183.5C 144.23,191.468 134.063,196.635 122.5,199C 105.995,201.607 89.6618,200.94 73.5,197C 57.003,191.166 46.8364,179.666 43,162.5C 41.7946,154.881 41.2946,147.214 41.5,139.5C 53.5,139.5 65.5,139.5 77.5,139.5C 77.334,144.844 77.5006,150.177 78,155.5C 78.2321,156.737 78.7321,157.737 79.5,158.5C 85.7179,171.269 96.0512,176.102 110.5,173C 120.582,170.254 126.416,163.754 128,153.5C 130.6,137.355 124.1,127.022 108.5,122.5C 98.8843,117.676 88.8843,113.509 78.5,110C 48.6769,95.5087 37.8436,72.0087 46,39.5C 52.8131,18.185 67.3131,6.18499 89.5,3.5 Z"/></g>
<g><path style="opacity:1" fill="#313131" d="M 121.5,2.5 C 137.701,5.5389 149.868,14.2056 158,28.5C 158.494,30.1341 158.66,31.8008 158.5,33.5C 151.242,17.9047 139.242,8.23799 122.5,4.5C 123.239,4.63101 123.906,4.46434 124.5,4C 123.263,3.76791 122.263,3.26791 121.5,2.5 Z"/></g>
<g><path style="opacity:1" fill="#bababa" d="M 83.5,46.5 C 83.5324,52.1886 83.8658,57.8552 84.5,63.5C 82.9814,60.4744 82.3148,57.1411 82.5,53.5C 82.5034,50.9746 82.8367,48.6413 83.5,46.5 Z"/></g>
<g><path style="opacity:1" fill="#a4a4a4" d="M 119.5,39.5 C 121.025,42.0791 122.359,44.7458 123.5,47.5C 123.5,50.1667 123.5,52.8333 123.5,55.5C 122.411,50.2086 121.078,44.8752 119.5,39.5 Z"/></g>
<g><path style="opacity:1" fill="#252525" d="M 158.5,33.5 C 161.991,41.6923 163.325,50.3589 162.5,59.5C 149.5,59.5 136.5,59.5 123.5,59.5C 123.5,58.1667 123.5,56.8333 123.5,55.5C 123.5,52.8333 123.5,50.1667 123.5,47.5C 123.833,47.5 124.167,47.5 124.5,47.5C 125.051,50.8067 125.384,54.1401 125.5,57.5C 137.167,57.5 148.833,57.5 160.5,57.5C 160.827,49.397 160.161,41.397 158.5,33.5 Z"/></g>
<g><path style="opacity:1" fill="#a2a2a2" d="M 43.5,43.5 C 42.6502,50.7985 42.3169,58.1319 42.5,65.5C 41.3454,58.6791 41.1787,51.6791 42,44.5C 42.3826,43.944 42.8826,43.6107 43.5,43.5 Z"/></g>
<g><path style="opacity:1" fill="#252525" d="M 85.5,2.5 C 87.099,2.23219 88.4324,2.56552 89.5,3.5C 67.3131,6.18499 52.8131,18.185 46,39.5C 37.8436,72.0087 48.6769,95.5087 78.5,110C 88.8843,113.509 98.8843,117.676 108.5,122.5C 89.4788,117.822 72.1455,109.655 56.5,98C 47.8586,88.9183 43.192,78.085 42.5,65.5C 42.3169,58.1319 42.6502,50.7985 43.5,43.5C 48.2461,20.4212 62.2461,6.75453 85.5,2.5 Z"/></g>
<g><path style="opacity:1" fill="#cbcbcb" d="M 80.5,151.5 C 79.5128,146.695 79.1795,141.695 79.5,136.5C 66.1667,136.5 52.8333,136.5 39.5,136.5C 39.5,141.5 39.5,146.5 39.5,151.5C 38.5119,146.36 38.1786,141.026 38.5,135.5C 52.5,135.5 66.5,135.5 80.5,135.5C 80.5,140.833 80.5,146.167 80.5,151.5 Z"/></g>
<g><path style="opacity:1" fill="#2b2b2b" d="M 124.5,47.5 C 124.167,47.5 123.833,47.5 123.5,47.5C 122.359,44.7458 121.025,42.0791 119.5,39.5C 117.067,35.2402 113.4,32.7402 108.5,32C 99.5637,29.6514 92.0637,31.8181 86,38.5C 84.2932,40.9088 83.4598,43.5755 83.5,46.5C 82.8367,48.6413 82.5034,50.9746 82.5,53.5C 82.3148,57.1411 82.9814,60.4744 84.5,63.5C 86.6144,68.7818 90.2811,72.6152 95.5,75C 111.784,82.5352 128.117,89.8685 144.5,97C 166.554,112.284 174.054,133.118 167,159.5C 162.055,179.78 149.555,192.947 129.5,199C 107,204.736 85.0003,203.403 63.5,195C 47.5707,184.982 39.5707,170.482 39.5,151.5C 39.5,146.5 39.5,141.5 39.5,136.5C 52.8333,136.5 66.1667,136.5 79.5,136.5C 79.1795,141.695 79.5128,146.695 80.5,151.5C 81.8467,164.85 89.1801,171.517 102.5,171.5C 112.83,172.588 120.33,168.588 125,159.5C 127.189,151.391 126.856,143.391 124,135.5C 119.52,130.173 114.353,125.84 108.5,122.5C 124.1,127.022 130.6,137.355 128,153.5C 126.416,163.754 120.582,170.254 110.5,173C 96.0512,176.102 85.7179,171.269 79.5,158.5C 78.669,151.869 78.3357,145.202 78.5,138.5C 65.9887,138.171 53.6554,138.505 41.5,139.5C 41.2946,147.214 41.7946,154.881 43,162.5C 46.8364,179.666 57.003,191.166 73.5,197C 89.6618,200.94 105.995,201.607 122.5,199C 134.063,196.635 144.23,191.468 153,183.5C 165.063,167.551 169.397,149.551 166,129.5C 163.451,116.629 156.618,106.796 145.5,100C 127.483,91.6576 109.483,83.3243 91.5,75C 85.5661,70.633 82.0661,64.7997 81,57.5C 78.1094,44.1093 82.9428,34.9426 95.5,30C 110.953,26.7113 120.62,32.5446 124.5,47.5 Z"/></g>
<g><path style="opacity:1" fill="#b3b3b3" d="M 41.5,139.5 C 53.6554,138.505 65.9887,138.171 78.5,138.5C 78.3357,145.202 78.669,151.869 79.5,158.5C 78.7321,157.737 78.2321,156.737 78,155.5C 77.5006,150.177 77.334,144.844 77.5,139.5C 65.5,139.5 53.5,139.5 41.5,139.5 Z"/></g>
</svg>
