<svg width="252" height="67" viewBox="0 0 252 67" fill="none" xmlns="http://www.w3.org/2000/svg">
<path d="M99.2017 42.254C101.926 41.0774 103.217 38.0105 103.217 35.0727C103.262 28.567 96.1168 26.5781 90.5324 26.5781H71.9629V57.2467H89.7368C95.719 57.2467 103.495 55.6221 103.578 48.7065C103.623 45.2298 101.611 43.332 99.2017 42.2464M90.675 51.9632H80.1818V44.3719H90.585C93.2195 44.3719 95.4563 45.2753 95.4563 48.0765C95.4563 50.2931 93.85 51.9632 90.675 51.9632ZM90.585 40.0829H80.1818V32.5828H90.052C92.8217 32.5828 95.4563 33.3495 95.4563 36.2873C95.4563 39.0429 93.3096 40.0829 90.585 40.0829Z" fill="white"/>
<path d="M111.857 30.8674H115.332V23.4053H107.068V26.0242C107.068 28.6964 109.215 30.8674 111.857 30.8674Z" fill="white"/>
<path d="M107.068 57.2455H115.325V30.9268L107.068 34.6616V57.2455Z" fill="white"/>
<path d="M142.479 31.1855C136.849 31.1855 131.445 33.9412 128.856 36.9245V31.5499H120.637V66.7808H128.856V50.3382C131.445 53.3216 137.517 56.1683 142.479 56.1683C151.186 56.1683 158.106 51.6059 158.106 43.8401C158.106 37.0232 151.186 31.1931 142.479 31.1931M140.107 51.5983C133.277 51.5983 128.856 46.8538 128.856 43.5137C128.856 40.1736 133.457 35.6568 139.979 35.6568C145.564 35.6568 149.85 38.7312 149.85 43.9236C149.85 48.4859 146.142 51.5983 140.114 51.5983" fill="white"/>
<path d="M169.809 23.3594H161.59V57.2466H169.809V23.3594Z" fill="white"/>
<path d="M191.157 31.8164C181.91 31.8164 174.006 36.9177 174.006 44.8733C174.006 52.8289 181.684 57.8391 190.932 57.8391C197.717 57.8391 203.436 55.2657 205.673 51.2423L199.241 50.1568C197.184 52.4114 194.062 53.588 190.842 53.588C186.195 53.588 182.983 50.6958 182.848 47.219C185.708 47.219 204.817 47.1279 207.317 47.1279C207.497 46.4523 207.587 45.6856 207.587 44.9568C207.542 36.0144 199.638 31.8164 191.149 31.8164M182.72 43.97C182.675 40.2199 185.625 36.3332 190.849 36.3332C195.585 36.3332 198.888 39.4532 198.888 43.9244L182.72 43.97Z" fill="white"/>
<path d="M216.925 39.9006C216.925 37.0539 220.768 36.4238 225.812 36.4238C230.052 36.4238 233.805 36.8793 233.805 40.1284H241.844C241.844 33.0837 233.76 31.2314 225.812 31.2314C215.806 31.2314 208.48 34.1237 208.48 39.4527C208.48 51.333 234.248 43.4761 234.248 49.6174C234.248 51.6518 230.63 52.6918 225.541 52.6918C221.608 52.6918 217.322 52.4186 217.322 49.2606H208.796C208.796 52.3275 210.807 57.7931 225.766 57.7931C233.805 57.7931 242.024 55.0831 242.024 49.6174C242.024 38.4583 216.925 45.594 216.925 39.9082" fill="white"/>
<path d="M248.929 52.4492C247.105 52.4492 245.844 53.2615 245.844 54.4457C245.844 55.6299 247.112 56.4346 248.929 56.4346C250.745 56.4346 251.999 55.6679 251.999 54.4457C251.999 53.2235 250.738 52.4492 248.929 52.4492ZM248.936 55.9108C247.42 55.9108 246.362 55.3111 246.362 54.4457C246.362 53.5803 247.412 52.9882 248.936 52.9882C250.46 52.9882 251.511 53.5955 251.511 54.4457C251.511 55.2959 250.437 55.9108 248.936 55.9108Z" fill="white"/>
<path d="M249.573 54.5977C249.993 54.5901 250.398 54.4383 250.398 54.0663C250.398 53.6564 249.873 53.5273 249.325 53.5273H247.523V55.3416H248.221V54.5977H248.672L249.595 55.3416H250.413L249.445 54.5901H249.58L249.573 54.5977ZM248.221 54.37V53.8993H249.317C249.505 53.8993 249.7 53.9676 249.708 54.1195C249.715 54.2637 249.528 54.37 249.31 54.37H248.221Z" fill="white"/>
<path d="M48.5101 19.8859L26.5029 19.9011L23.7182 29.595H45.5903L39.9159 49.2335L22.3446 49.3095C19.0045 49.3246 16.5801 46.0832 17.5108 42.8341L29.5428 0.793945H12.009L0.52505 40.5871C-1.89935 48.9982 4.34554 57.4093 13.0148 57.3941L54.7625 57.3258L60.8347 36.5562C63.2666 28.2286 57.0968 19.8783 48.5101 19.8859Z" fill="#53FAFB"/>
<path d="M29.647 39.1901H27.748L29.0391 34.8252H33.3549L32.7545 36.8521C32.3416 38.2412 31.0807 39.1901 29.647 39.1901Z" fill="white"/>
<path d="M36.8685 39.1901H34.7969L36.0879 34.8252H40.4038L39.7508 37.0191C39.368 38.3096 38.197 39.1901 36.861 39.1901" fill="white"/>
</svg>
