<svg width="49" height="45" viewBox="0 0 49 45" fill="none" xmlns="http://www.w3.org/2000/svg">
<path d="M38.1166 15.0008L20.8252 15.0127L18.6373 22.6294H35.8225L31.364 38.0597L17.558 38.1193C14.9336 38.1313 13.0288 35.5844 13.7601 33.0316L23.2137 0H9.43721L0.414074 31.2661C-1.49081 37.8748 3.41589 44.4835 10.2275 44.4716L43.0292 44.4179L47.8002 28.0989C49.711 21.5558 44.8633 14.9948 38.1166 15.0008Z" fill="#53FAFB"/>
<path d="M23.2967 30.1689H21.8047L22.819 26.7393H26.2101L25.7383 28.3318C25.4139 29.4233 24.4232 30.1689 23.2967 30.1689Z" fill="white"/>
<path d="M28.9695 30.1689H27.3418L28.3562 26.7393H31.7472L31.2341 28.463C30.9334 29.477 30.0134 30.1689 28.9636 30.1689" fill="white"/>
</svg>
