<svg width="16" height="17" viewBox="0 0 16 17" fill="none" xmlns="http://www.w3.org/2000/svg">
<path d="M3.36142 12.4357C3.36142 12.7122 3.36142 12.8505 3.37375 12.9707C3.47614 13.9686 4.19784 14.7929 5.17347 15.0263C5.29097 15.0544 5.42806 15.0727 5.70213 15.1092L10.8909 15.8011C12.3679 15.998 13.1064 16.0965 13.6796 15.8686C14.1828 15.6685 14.602 15.3015 14.8669 14.8291C15.1685 14.2911 15.1685 13.546 15.1685 12.0559V4.94408C15.1685 3.45399 15.1685 2.70894 14.8669 2.17091C14.602 1.69853 14.1828 1.33155 13.6796 1.13145C13.1064 0.903541 12.3679 1.00201 10.8909 1.19895L5.70213 1.89078C5.42803 1.92733 5.29098 1.9456 5.17347 1.97371C4.19784 2.20709 3.47614 3.0314 3.37375 4.02931C3.36142 4.14951 3.36142 4.28777 3.36142 4.5643M8.08426 5.35144L11.2328 8.5M11.2328 8.5L8.08426 11.6486M11.2328 8.5H1" stroke="#FF5252" stroke-linecap="round" stroke-linejoin="round"/>
</svg>
