<svg width="30" height="30" viewBox="0 0 30 30" fill="none" xmlns="http://www.w3.org/2000/svg">
<path d="M18.1667 24.5V18.8C18.1667 18.2088 18.1667 17.9133 18.0516 17.6875C17.9504 17.4888 17.7889 17.3274 17.5903 17.2262C17.3645 17.1111 17.0689 17.1111 16.4778 17.1111H13.5222C12.9311 17.1111 12.6355 17.1111 12.4097 17.2262C12.2111 17.3274 12.0496 17.4888 11.9484 17.6875C11.8333 17.9133 11.8333 18.2088 11.8333 18.8V24.5M5.5 9.72222C5.5 11.4711 6.91776 12.8889 8.66667 12.8889C10.4156 12.8889 11.8333 11.4711 11.8333 9.72222C11.8333 11.4711 13.2511 12.8889 15 12.8889C16.7489 12.8889 18.1667 11.4711 18.1667 9.72222C18.1667 11.4711 19.5844 12.8889 21.3333 12.8889C23.0822 12.8889 24.5 11.4711 24.5 9.72222M8.87778 24.5H21.1222C22.3046 24.5 22.8957 24.5 23.3473 24.2699C23.7445 24.0675 24.0675 23.7445 24.2699 23.3473C24.5 22.8957 24.5 22.3046 24.5 21.1222V8.87778C24.5 7.69544 24.5 7.10428 24.2699 6.65269C24.0675 6.25546 23.7445 5.9325 23.3473 5.7301C22.8957 5.5 22.3046 5.5 21.1222 5.5H8.87778C7.69544 5.5 7.10428 5.5 6.65269 5.7301C6.25546 5.9325 5.9325 6.25546 5.7301 6.65269C5.5 7.10428 5.5 7.69544 5.5 8.87778V21.1222C5.5 22.3046 5.5 22.8957 5.7301 23.3473C5.9325 23.7445 6.25546 24.0675 6.65269 24.2699C7.10428 24.5 7.69544 24.5 8.87778 24.5Z" stroke="black" stroke-width="1.5" stroke-linecap="round" stroke-linejoin="round"/>
</svg>
