<svg width="21" height="21" viewBox="0 0 21 21" fill="none" xmlns="http://www.w3.org/2000/svg">
<path d="M13.5 19.3477V13.9477C13.5 13.3876 13.5 13.1076 13.391 12.8937C13.2951 12.7055 13.1422 12.5525 12.954 12.4566C12.7401 12.3477 12.4601 12.3477 11.9 12.3477H9.1C8.53995 12.3477 8.25992 12.3477 8.04601 12.4566C7.85785 12.5525 7.70487 12.7055 7.60899 12.8937C7.5 13.1076 7.5 13.3876 7.5 13.9477V19.3477M1.5 5.34766C1.5 7.00451 2.84315 8.34766 4.5 8.34766C6.15685 8.34766 7.5 7.00451 7.5 5.34766C7.5 7.00451 8.84315 8.34766 10.5 8.34766C12.1569 8.34766 13.5 7.00451 13.5 5.34766C13.5 7.00451 14.8431 8.34766 16.5 8.34766C18.1569 8.34766 19.5 7.00451 19.5 5.34766M4.7 19.3477H16.3C17.4201 19.3477 17.9802 19.3477 18.408 19.1297C18.7843 18.9379 19.0903 18.632 19.282 18.2556C19.5 17.8278 19.5 17.2678 19.5 16.1477V4.54766C19.5 3.42755 19.5 2.8675 19.282 2.43968C19.0903 2.06335 18.7843 1.75739 18.408 1.56564C17.9802 1.34766 17.4201 1.34766 16.3 1.34766H4.7C3.5799 1.34766 3.01984 1.34766 2.59202 1.56564C2.21569 1.75739 1.90973 2.06335 1.71799 2.43968C1.5 2.8675 1.5 3.42755 1.5 4.54766V16.1477C1.5 17.2678 1.5 17.8278 1.71799 18.2556C1.90973 18.632 2.21569 18.9379 2.59202 19.1297C3.01984 19.3477 3.57989 19.3477 4.7 19.3477Z" stroke="#53FAFB" stroke-width="1.5" stroke-linecap="round" stroke-linejoin="round"/>
</svg>
