<svg width="37" height="37" viewBox="0 0 37 37" fill="none" xmlns="http://www.w3.org/2000/svg">
<rect x="0.455078" y="0.620117" width="35.75" height="35.75" rx="17.875" fill="#AB8468"/>
<path d="M14.7547 16.95H14.7626M18.3297 16.95H18.3376M21.9047 16.95H21.9126M16.6614 24.2813L17.8212 25.9217C17.9937 26.1656 18.08 26.2876 18.1857 26.3312C18.2783 26.3694 18.3811 26.3694 18.4737 26.3312C18.5794 26.2876 18.6656 26.1656 18.8381 25.9217L19.998 24.2813C20.2309 23.9519 20.3474 23.7872 20.4894 23.6615C20.6788 23.4938 20.9023 23.3753 21.1424 23.3152C21.3225 23.2701 21.5165 23.2701 21.9047 23.2701C23.0152 23.2701 23.5704 23.2701 24.0084 23.0776C24.5924 22.8211 25.0564 22.3289 25.2983 21.7095C25.4797 21.2449 25.4797 20.6559 25.4797 19.478V14.6747C25.4797 13.2589 25.4797 12.551 25.2199 12.0102C24.9914 11.5345 24.6268 11.1478 24.1784 10.9054C23.6685 10.6299 23.0011 10.6299 21.6664 10.6299H14.993C13.6582 10.6299 12.9908 10.6299 12.481 10.9054C12.0326 11.1478 11.668 11.5345 11.4395 12.0102C11.1797 12.551 11.1797 13.2589 11.1797 14.6747V19.478C11.1797 20.6559 11.1797 21.2449 11.3611 21.7095C11.603 22.3289 12.067 22.8211 12.651 23.0776C13.0889 23.2701 13.6442 23.2701 14.7547 23.2701C15.1428 23.2701 15.3369 23.2701 15.517 23.3152C15.757 23.3753 15.9806 23.4938 16.17 23.6615C16.312 23.7872 16.4285 23.9519 16.6614 24.2813ZM15.1519 16.95C15.1519 17.1827 14.9741 17.3713 14.7547 17.3713C14.5353 17.3713 14.3575 17.1827 14.3575 16.95C14.3575 16.7173 14.5353 16.5286 14.7547 16.5286C14.9741 16.5286 15.1519 16.7173 15.1519 16.95ZM18.7269 16.95C18.7269 17.1827 18.5491 17.3713 18.3297 17.3713C18.1103 17.3713 17.9325 17.1827 17.9325 16.95C17.9325 16.7173 18.1103 16.5286 18.3297 16.5286C18.5491 16.5286 18.7269 16.7173 18.7269 16.95ZM22.3019 16.95C22.3019 17.1827 22.1241 17.3713 21.9047 17.3713C21.6853 17.3713 21.5075 17.1827 21.5075 16.95C21.5075 16.7173 21.6853 16.5286 21.9047 16.5286C22.1241 16.5286 22.3019 16.7173 22.3019 16.95Z" stroke="white" stroke-width="1.43" stroke-linecap="round" stroke-linejoin="round"/>
</svg>
