<svg width="39" height="40" viewBox="0 0 39 40" fill="none" xmlns="http://www.w3.org/2000/svg">
<circle cx="19.5" cy="20.0005" r="19.5" fill="#232323"/>
<path d="M26.8125 20.0005C26.8125 24.0391 23.5386 27.313 19.5 27.313C18.5273 27.313 17.599 27.1231 16.7501 26.7783C16.5876 26.7123 16.5064 26.6793 16.4407 26.6646C16.3765 26.6502 16.3289 26.645 16.2631 26.6449C16.1958 26.6449 16.1225 26.6572 15.9759 26.6816L13.0851 27.1634C12.7824 27.2138 12.631 27.2391 12.5216 27.1921C12.4258 27.151 12.3495 27.0747 12.3084 26.9789C12.2614 26.8695 12.2866 26.7181 12.3371 26.4154L12.8189 23.5246C12.8433 23.378 12.8556 23.3047 12.8555 23.2374C12.8555 23.1716 12.8503 23.124 12.8359 23.0598C12.8212 22.9941 12.7882 22.9129 12.7222 22.7504C12.3774 21.9015 12.1875 20.9732 12.1875 20.0005C12.1875 15.9619 15.4614 12.688 19.5 12.688C23.5386 12.688 26.8125 15.9619 26.8125 20.0005Z" fill="#606060"/>
</svg>
