<svg width="13" height="15" viewBox="0 0 13 15" fill="none" xmlns="http://www.w3.org/2000/svg">
<path d="M7.98568 12.12C7.98568 13.2135 7.16487 14.1 6.15234 14.1C5.13982 14.1 4.31901 13.2135 4.31901 12.12M3.32747 4.78398C2.78566 5.39677 2.48568 6.16992 2.48568 6.97202C2.48568 8.47801 2.13987 9.57941 1.70838 10.3675C1.21661 11.2657 0.970718 11.7148 0.980428 11.8221C0.991537 11.9449 1.01199 11.9836 1.10416 12.0564C1.18473 12.12 1.58949 12.12 2.39901 12.12H10.9679M6.15234 3.54002C5.97334 3.54002 5.79569 3.55228 5.62067 3.57628C5.38752 3.60826 5.27094 3.62425 5.15394 3.5899C5.0697 3.56517 4.94269 3.48543 4.88111 3.41861C4.79557 3.32579 4.77687 3.27684 4.73946 3.17892C4.66541 2.9851 4.62457 2.77271 4.62457 2.55002C4.62457 1.63875 5.30858 0.900024 6.15234 0.900024C6.99611 0.900024 7.68012 1.63875 7.68012 2.55002C7.68012 2.99593 7.51634 3.40053 7.25021 3.69747C6.8981 3.59404 6.5282 3.54002 6.15234 3.54002ZM6.15234 3.54002C7.1248 3.54002 8.05744 3.90161 8.74507 4.54523C9.4327 5.18886 9.81901 6.0618 9.81901 6.97202C9.81901 7.19297 9.82459 7.40521 9.83514 7.60903M11.6523 12.78L0.652344 2.22002" stroke="white" stroke-width="1.1" stroke-linecap="round" stroke-linejoin="round"/>
</svg>
