<svg width="32" height="32" viewBox="0 0 32 32" fill="none" xmlns="http://www.w3.org/2000/svg">
<path d="M12.1406 13.0471H4.05931C3.66243 13.0471 3.24993 13.0783 2.85306 13.0377C2.93743 13.0502 3.01868 13.0596 3.10306 13.0721C3.00306 13.0564 2.91243 13.0346 2.81868 12.9971L3.04368 13.0908C2.98743 13.0658 2.93431 13.0346 2.88118 13.0033C2.84993 12.9846 2.76243 12.9158 2.89368 13.0158C3.03118 13.1189 2.92181 13.0346 2.89681 13.0096C2.89056 13.0033 2.84056 12.9533 2.84056 12.9502C2.84681 12.9408 2.97806 13.1533 2.91243 13.0439C2.87806 12.9846 2.84368 12.9283 2.81556 12.8627L2.90931 13.0877C2.87181 12.9939 2.84681 12.9033 2.83431 12.8033C2.84681 12.8877 2.85618 12.9689 2.86868 13.0533C2.83431 12.7221 2.85931 12.3814 2.85931 12.0502V4.8627C2.85931 4.45957 2.82493 4.0377 2.86868 3.6377C2.85618 3.72207 2.84681 3.80332 2.83431 3.8877C2.84993 3.7877 2.87181 3.69707 2.90931 3.60332L2.81556 3.82832C2.84056 3.77207 2.87181 3.71895 2.90306 3.66582C2.92181 3.63457 2.99056 3.54707 2.89056 3.67832C2.78743 3.81582 2.87181 3.70645 2.89681 3.68145C2.90306 3.6752 2.95306 3.6252 2.95618 3.6252C2.96556 3.63145 2.75306 3.7627 2.86243 3.69707C2.92181 3.6627 2.97806 3.62832 3.04368 3.6002L2.81868 3.69395C2.91243 3.65645 3.00306 3.63145 3.10306 3.61895C3.01868 3.63145 2.93743 3.64082 2.85306 3.65332C3.18431 3.61895 3.52493 3.64395 3.85618 3.64395H11.0437C11.4468 3.64395 11.8687 3.60957 12.2687 3.65332C12.1843 3.64082 12.1031 3.63145 12.0187 3.61895C12.1187 3.63457 12.2093 3.65645 12.3031 3.69395L12.0781 3.6002C12.1343 3.6252 12.1874 3.65645 12.2406 3.6877C12.2718 3.70645 12.3593 3.7752 12.2281 3.6752C12.0906 3.57207 12.1999 3.65645 12.2249 3.68145C12.2312 3.6877 12.2812 3.7377 12.2812 3.74082C12.2749 3.7502 12.1437 3.5377 12.2093 3.64707C12.2437 3.70645 12.2781 3.7627 12.3062 3.82832L12.2124 3.60332C12.2499 3.69707 12.2749 3.7877 12.2874 3.8877C12.2749 3.80332 12.2656 3.72207 12.2531 3.6377C12.2874 3.96895 12.2624 4.30957 12.2624 4.64082V11.8283C12.2624 12.2314 12.2968 12.6533 12.2531 13.0533C12.2656 12.9689 12.2749 12.8877 12.2874 12.8033C12.2718 12.9033 12.2499 12.9939 12.2124 13.0877L12.3062 12.8627C12.2812 12.9189 12.2499 12.9721 12.2187 13.0252C12.1999 13.0564 12.1312 13.1439 12.2312 13.0127C12.3343 12.8752 12.2499 12.9846 12.2249 13.0096C12.2187 13.0158 12.1687 13.0658 12.1656 13.0658C12.1562 13.0596 12.3687 12.9283 12.2593 12.9939C12.1999 13.0283 12.1437 13.0627 12.0781 13.0908L12.3031 12.9971C12.2093 13.0346 12.1187 13.0596 12.0187 13.0721C12.1031 13.0596 12.1843 13.0502 12.2687 13.0377C12.2281 13.0439 12.1843 13.0471 12.1406 13.0471C11.6499 13.0564 11.1812 13.4721 11.2031 13.9846C11.2249 14.4846 11.6156 14.9314 12.1406 14.9221C13.2406 14.9002 14.1218 14.0252 14.1406 12.9221C14.1437 12.8158 14.1406 12.7127 14.1406 12.6064V5.10332C14.1406 4.6627 14.1468 4.22207 14.1406 3.78145C14.1281 2.90332 13.5906 2.15957 12.7656 1.86582C12.5031 1.77207 12.2249 1.7627 11.9468 1.7627H3.05618C2.47806 1.7627 1.90306 1.96895 1.51556 2.40957C1.15306 2.81895 0.98431 3.31582 0.98431 3.85645V12.7627C0.98431 13.1408 1.04368 13.4971 1.21243 13.8439C1.54368 14.5189 2.27493 14.9158 3.01243 14.9189C4.36243 14.9283 5.71556 14.9189 7.06556 14.9189H12.1406C12.6312 14.9189 13.0999 14.4877 13.0781 13.9814C13.0562 13.4752 12.6656 13.0471 12.1406 13.0471V13.0471ZM12.1406 17.0783H3.00931C2.13743 17.0846 1.41243 17.6127 1.10306 18.4158C0.924935 18.8783 0.987435 19.4627 0.987435 19.9533V28.1596C0.987435 28.7158 1.17493 29.2533 1.57181 29.6533C1.97493 30.0564 2.51243 30.2377 3.07181 30.2377H11.9687C12.3374 30.2377 12.6874 30.1846 13.0281 30.0252C13.7218 29.7064 14.1374 28.9627 14.1406 28.2127V22.7283C14.1406 21.5127 14.1624 20.2971 14.1406 19.0814C14.1218 17.9752 13.2437 17.1002 12.1406 17.0783C11.6499 17.0689 11.1812 17.5158 11.2031 18.0158C11.2249 18.5314 11.6156 18.9439 12.1406 18.9533C12.1843 18.9533 12.2281 18.9564 12.2718 18.9627C12.1874 18.9502 12.1062 18.9408 12.0218 18.9283C12.1218 18.9439 12.2124 18.9658 12.3062 19.0033L12.0812 18.9096C12.1374 18.9346 12.1906 18.9658 12.2437 18.9971C12.2749 19.0158 12.3624 19.0846 12.2312 18.9846C12.0937 18.8814 12.2031 18.9658 12.2281 18.9908C12.2343 18.9971 12.2843 19.0471 12.2843 19.0502C12.2781 19.0596 12.1468 18.8471 12.2124 18.9564C12.2468 19.0158 12.2812 19.0721 12.3093 19.1377L12.2156 18.9127C12.2531 19.0064 12.2781 19.0971 12.2906 19.1971C12.2781 19.1127 12.2687 19.0314 12.2562 18.9471C12.2906 19.2783 12.2656 19.6189 12.2656 19.9502V27.1377C12.2656 27.5408 12.2999 27.9627 12.2562 28.3627C12.2687 28.2783 12.2781 28.1971 12.2906 28.1127C12.2749 28.2127 12.2531 28.3033 12.2156 28.3971L12.3093 28.1721C12.2843 28.2283 12.2531 28.2814 12.2218 28.3346C12.2031 28.3658 12.1343 28.4533 12.2343 28.3221C12.3374 28.1846 12.2531 28.2939 12.2281 28.3189C12.2218 28.3252 12.1718 28.3752 12.1687 28.3752C12.1593 28.3689 12.3718 28.2377 12.2624 28.3033C12.2031 28.3377 12.1468 28.3721 12.0812 28.4002L12.3062 28.3064C12.2124 28.3439 12.1218 28.3689 12.0218 28.3814C12.1062 28.3689 12.1874 28.3596 12.2718 28.3471C11.9406 28.3814 11.5999 28.3564 11.2687 28.3564H4.08118C3.67806 28.3564 3.25618 28.3908 2.85618 28.3471C2.94056 28.3596 3.02181 28.3689 3.10618 28.3814C3.00618 28.3658 2.91556 28.3439 2.82181 28.3064L3.04681 28.4002C2.99056 28.3752 2.93743 28.3439 2.88431 28.3127C2.85306 28.2939 2.76556 28.2252 2.89681 28.3252C3.03431 28.4283 2.92493 28.3439 2.89993 28.3189C2.89368 28.3127 2.84368 28.2627 2.84368 28.2596C2.84993 28.2502 2.98118 28.4627 2.91556 28.3533C2.88118 28.2939 2.84681 28.2377 2.81868 28.1721L2.91243 28.3971C2.87493 28.3033 2.84993 28.2127 2.83743 28.1127C2.84993 28.1971 2.85931 28.2783 2.87181 28.3627C2.83743 28.0314 2.86243 27.6908 2.86243 27.3596V20.1721C2.86243 19.7689 2.82806 19.3471 2.87181 18.9471C2.85931 19.0314 2.84993 19.1127 2.83743 19.1971C2.85306 19.0971 2.87493 19.0064 2.91243 18.9127L2.81868 19.1377C2.84368 19.0814 2.87493 19.0283 2.90618 18.9752C2.92493 18.9439 2.99368 18.8564 2.89368 18.9877C2.79056 19.1252 2.87493 19.0158 2.89993 18.9908C2.90618 18.9846 2.95618 18.9346 2.95931 18.9346C2.96868 18.9408 2.75618 19.0721 2.86556 19.0064C2.92493 18.9721 2.98118 18.9377 3.04681 18.9096L2.82181 19.0033C2.91556 18.9658 3.00618 18.9408 3.10618 18.9283C3.02181 18.9408 2.94056 18.9502 2.85618 18.9627C3.18743 18.9283 3.52806 18.9533 3.85931 18.9533H12.1437C12.6343 18.9533 13.1031 18.5221 13.0812 18.0158C13.0562 17.5064 12.6656 17.0783 12.1406 17.0783V17.0783ZM17.1218 6.4002H28.4812C29.0062 6.4002 29.5312 6.4127 30.0562 6.4002H30.0781C30.5687 6.4002 31.0374 5.96895 31.0156 5.4627C30.9937 4.95332 30.6031 4.5252 30.0781 4.5252H18.7187C18.1937 4.5252 17.6687 4.5127 17.1437 4.5252H17.1218C16.6312 4.5252 16.1624 4.95645 16.1843 5.4627C16.2062 5.96895 16.5968 6.4002 17.1218 6.4002ZM25.1718 10.2877H17.1187C16.6281 10.2877 16.1593 10.7189 16.1812 11.2252C16.2031 11.7346 16.5937 12.1627 17.1187 12.1627H25.1718C25.6624 12.1627 26.1312 11.7314 26.1093 11.2252C26.0874 10.7158 25.6999 10.2877 25.1718 10.2877ZM17.1218 21.7127H28.4812C29.0062 21.7127 29.5312 21.7252 30.0562 21.7127H30.0781C30.5687 21.7127 31.0374 21.2814 31.0156 20.7752C30.9937 20.2658 30.6031 19.8377 30.0781 19.8377H18.7187C18.1937 19.8377 17.6687 19.8252 17.1437 19.8377H17.1218C16.6312 19.8377 16.1624 20.2689 16.1843 20.7752C16.2062 21.2846 16.5968 21.7127 17.1218 21.7127ZM25.1718 25.6002H17.1187C16.6281 25.6002 16.1593 26.0314 16.1812 26.5377C16.2031 27.0471 16.5937 27.4752 17.1187 27.4752H25.1718C25.6624 27.4752 26.1312 27.0439 26.1093 26.5377C26.0874 26.0314 25.6999 25.6002 25.1718 25.6002Z" fill="white"/>
</svg>
