<svg width="37" height="37" viewBox="0 0 37 37" fill="none" xmlns="http://www.w3.org/2000/svg">
<rect x="0.455078" y="0.419922" width="35.75" height="35.75" rx="17.875" fill="#FF5252"/>
<path d="M21.0111 24.5512C21.0111 26.032 19.8106 27.2324 18.3298 27.2324C16.849 27.2324 15.6486 26.032 15.6486 24.5512M19.9354 13.1456C20.3247 12.7435 20.5642 12.1956 20.5642 11.5918C20.5642 10.3578 19.5638 9.35742 18.3298 9.35742C17.0958 9.35742 16.0954 10.3578 16.0954 11.5918C16.0954 12.1956 16.335 12.7435 16.7242 13.1456M9.88103 15.0086C9.86821 13.7114 10.5676 12.5001 11.6973 11.8627M26.7786 15.0086C26.7914 13.7114 26.0921 12.5001 24.9623 11.8627M23.6923 17.5799C23.6923 16.3473 23.1273 15.1652 22.1217 14.2936C21.116 13.4221 19.752 12.9324 18.3298 12.9324C16.9076 12.9324 15.5436 13.4221 14.538 14.2936C13.5323 15.1652 12.9673 16.3473 12.9673 17.5799C12.9673 19.6193 12.4616 21.1108 11.8305 22.178C11.1113 23.3943 10.7517 24.0025 10.7659 24.1478C10.7821 24.314 10.812 24.3664 10.9468 24.465C11.0647 24.5512 11.6566 24.5512 12.8406 24.5512H23.8191C25.003 24.5512 25.595 24.5512 25.7128 24.465C25.8476 24.3664 25.8775 24.314 25.8937 24.1478C25.9079 24.0025 25.5483 23.3943 24.8291 22.178C24.1981 21.1108 23.6923 19.6193 23.6923 17.5799Z" stroke="white" stroke-width="1.43" stroke-linecap="round" stroke-linejoin="round"/>
</svg>
