<svg width="18" height="17" viewBox="0 0 18 17" fill="none" xmlns="http://www.w3.org/2000/svg">
<path d="M11.2663 16.5H15.1774C15.6752 16.5 15.9241 16.5 16.1143 16.4031C16.2815 16.3179 16.4175 16.1819 16.5027 16.0147C16.5996 15.8245 16.5996 15.5756 16.5996 15.0778V1.92222C16.5996 1.4244 16.5996 1.17549 16.5027 0.985342C16.4175 0.818087 16.2815 0.682104 16.1143 0.596883C15.9241 0.5 15.6752 0.5 15.1774 0.5H12.6885C12.1907 0.5 11.9418 0.5 11.7516 0.596883C11.5844 0.682104 11.4484 0.818087 11.3632 0.985342C11.2663 1.17549 11.2663 1.4244 11.2663 1.92222V4.05556M11.2663 16.5H5.93294M11.2663 16.5L11.2663 4.05556M11.2663 4.05556H7.35517C6.85734 4.05556 6.60843 4.05556 6.41828 4.15244C6.25103 4.23766 6.11505 4.37364 6.02983 4.5409C5.93294 4.73104 5.93294 4.97995 5.93294 5.47778V16.5M5.93294 7.61111H2.02183C1.52401 7.61111 1.27509 7.61111 1.08495 7.70799C0.917696 7.79322 0.781713 7.9292 0.696492 8.09645C0.599609 8.2866 0.599609 8.53551 0.599609 9.03333V15.0778C0.599609 15.5756 0.599609 15.8245 0.696492 16.0147C0.781713 16.1819 0.917695 16.3179 1.08495 16.4031C1.27509 16.5 1.52401 16.5 2.02183 16.5H5.93294" stroke="white" stroke-linecap="round" stroke-linejoin="round"/>
</svg>
