<svg width="18" height="19" viewBox="0 0 18 19" fill="none" xmlns="http://www.w3.org/2000/svg">
<path d="M16.3143 17.0861H9.69188M1 17.5L5.59366 15.7332C5.88748 15.6202 6.03439 15.5637 6.17184 15.4899C6.29392 15.4244 6.41031 15.3487 6.51978 15.2638C6.64302 15.1682 6.75432 15.0569 6.97692 14.8343L16.3142 5.49696C17.2286 4.5826 17.2286 3.10013 16.3142 2.18577C15.3999 1.27141 13.9174 1.27141 13.0031 2.18577L3.66574 11.5231C3.44314 11.7457 3.33184 11.857 3.2362 11.9802C3.15125 12.0897 3.07562 12.2061 3.01008 12.3282C2.9363 12.4656 2.8798 12.6125 2.76679 12.9063L1 17.5ZM1 17.5L2.7037 13.0704C2.82562 12.7534 2.88658 12.595 2.99113 12.5224C3.0825 12.4589 3.19557 12.4349 3.30483 12.4558C3.42986 12.4797 3.54993 12.5997 3.79007 12.8399L5.66014 14.71C5.90028 14.9501 6.02035 15.0702 6.04423 15.1952C6.0651 15.3045 6.0411 15.4175 5.97766 15.5089C5.90506 15.6134 5.74657 15.6744 5.4296 15.7963L1 17.5Z" stroke="white" stroke-width="1.5" stroke-linecap="round" stroke-linejoin="round"/>
</svg>
