<svg width="39" height="40" viewBox="0 0 39 40" fill="none" xmlns="http://www.w3.org/2000/svg">
<rect y="0.100098" width="39" height="39" rx="19.5" fill="#212121"/>
<rect y="0.100098" width="39" height="39" rx="19.5" fill="#232323"/>
<path d="M19.4992 22.2003C16.5405 22.2003 13.9094 23.5268 12.2343 25.5855C11.8737 26.0285 11.6935 26.2501 11.6994 26.5495C11.7039 26.7808 11.8603 27.0726 12.0563 27.2154C12.31 27.4003 12.6616 27.4003 13.3647 27.4003H25.6337C26.3368 27.4003 26.6884 27.4003 26.9421 27.2154C27.1381 27.0726 27.2945 26.7808 27.2991 26.5495C27.305 26.2501 27.1247 26.0285 26.7642 25.5855C25.0891 23.5268 22.4579 22.2003 19.4992 22.2003Z" fill="#606060"/>
<path d="M19.4992 19.6003C21.8188 19.6003 23.6992 17.8542 23.6992 15.7003C23.6992 13.5464 21.8188 11.8003 19.4992 11.8003C17.1797 11.8003 15.2993 13.5464 15.2993 15.7003C15.2993 17.8542 17.1797 19.6003 19.4992 19.6003Z" fill="#606060"/>
</svg>
