<svg width="23" height="23" viewBox="0 0 23 23" fill="none" xmlns="http://www.w3.org/2000/svg">
<path d="M5.23403 18.7235C5.80433 17.3799 7.13586 16.4375 8.6875 16.4375H14.3125C15.8641 16.4375 17.1957 17.3799 17.766 18.7235M15.25 9.40625C15.25 11.4773 13.5711 13.1562 11.5 13.1562C9.42893 13.1562 7.75 11.4773 7.75 9.40625C7.75 7.33518 9.42893 5.65625 11.5 5.65625C13.5711 5.65625 15.25 7.33518 15.25 9.40625ZM20.875 11.75C20.875 16.9277 16.6777 21.125 11.5 21.125C6.32233 21.125 2.125 16.9277 2.125 11.75C2.125 6.57233 6.32233 2.375 11.5 2.375C16.6777 2.375 20.875 6.57233 20.875 11.75Z" stroke="white" stroke-width="1.5" stroke-linecap="round" stroke-linejoin="round"/>
</svg>
