<svg width="32" height="32" viewBox="0 0 32 32" fill="none" xmlns="http://www.w3.org/2000/svg">
<path d="M9.61483 10.9552C10.7149 13.2464 12.2145 15.3938 14.1136 17.2929C16.0127 19.1921 18.1601 20.6916 20.4513 21.7917C20.6484 21.8863 20.7469 21.9336 20.8716 21.97C21.3147 22.0991 21.8588 22.0064 22.2341 21.7376C22.3397 21.662 22.43 21.5717 22.6107 21.391C23.1632 20.8385 23.4395 20.5622 23.7173 20.3815C24.7651 19.7003 26.1158 19.7003 27.1635 20.3815C27.4413 20.5622 27.7176 20.8385 28.2702 21.391L28.5781 21.699C29.4181 22.539 29.8381 22.959 30.0662 23.41C30.52 24.3071 30.52 25.3664 30.0662 26.2635C29.8381 26.7145 29.4181 27.1345 28.5781 27.9745L28.329 28.2236C27.4919 29.0607 27.0734 29.4793 26.5043 29.7989C25.8729 30.1536 24.8922 30.4087 24.168 30.4065C23.5153 30.4046 23.0692 30.278 22.1771 30.0247C17.3827 28.664 12.8587 26.0964 9.08438 22.3221C5.3101 18.5479 2.74257 14.0238 1.38177 9.22943C1.12856 8.33731 1.00195 7.89124 1.00001 7.23857C0.997858 6.51433 1.2529 5.53363 1.6076 4.90219C1.92726 4.33315 2.3458 3.91461 3.18289 3.07752L3.43203 2.82838C4.272 1.98841 4.69198 1.56843 5.14303 1.34029C6.04008 0.886569 7.09946 0.886569 7.9965 1.34029C8.44756 1.56843 8.86754 1.98841 9.7075 2.82838L10.0155 3.13637C10.5681 3.68894 10.8443 3.96522 11.025 4.24304C11.7062 5.29076 11.7062 6.64145 11.025 7.68917C10.8443 7.967 10.5681 8.24328 10.0155 8.79584C9.83482 8.97652 9.74449 9.06685 9.66887 9.17245C9.40016 9.54772 9.30738 10.0918 9.43655 10.5349C9.4729 10.6596 9.52021 10.7582 9.61483 10.9552Z" stroke="white" stroke-width="2" stroke-linecap="round" stroke-linejoin="round"/>
</svg>
