<svg width="15" height="16" viewBox="0 0 15 16" fill="none" xmlns="http://www.w3.org/2000/svg">
<path d="M4.60893 10.6913L0.671875 14.6283M6.91797 4.44522L5.83162 5.53157C5.74301 5.62018 5.6987 5.66449 5.64822 5.6997C5.60341 5.73095 5.55508 5.75681 5.50423 5.77676C5.44693 5.79923 5.38549 5.81152 5.2626 5.8361L2.71221 6.34618C2.04943 6.47873 1.71804 6.54501 1.563 6.71974C1.42793 6.87196 1.36626 7.07566 1.3942 7.27724C1.42628 7.50862 1.66525 7.74759 2.14319 8.22553L7.07471 13.1571C7.55265 13.635 7.79162 13.874 8.02301 13.906C8.22458 13.934 8.42829 13.8723 8.5805 13.7372C8.75523 13.5822 8.82151 13.2508 8.95407 12.588L9.46414 10.0376C9.48872 9.91475 9.50101 9.85331 9.52348 9.79602C9.54343 9.74516 9.5693 9.69683 9.60055 9.65202C9.63575 9.60154 9.68006 9.55723 9.76868 9.46862L10.855 8.38227C10.9117 8.32562 10.94 8.29729 10.9711 8.27256C10.9988 8.25058 11.0281 8.23075 11.0588 8.21323C11.0933 8.1935 11.1301 8.17772 11.2038 8.14616L12.9398 7.40215C13.4463 7.18509 13.6995 7.07656 13.8145 6.90119C13.9151 6.74782 13.9511 6.56095 13.9147 6.3812C13.873 6.17565 13.6782 5.98083 13.2886 5.59121L9.70904 2.01169C9.31941 1.62206 9.1246 1.42725 8.91904 1.38558C8.73929 1.34914 8.55242 1.38513 8.39906 1.48572C8.22368 1.60075 8.11515 1.85398 7.8981 2.36045L7.15409 4.09647C7.12252 4.17011 7.10674 4.20694 7.08702 4.24147C7.06949 4.27214 7.04966 4.30143 7.02769 4.3291C7.00295 4.36024 6.97463 4.38857 6.91797 4.44522Z" stroke="#53FAFB" stroke-width="1.2" stroke-linecap="round" stroke-linejoin="round"/>
</svg>
