<svg width="97" height="20" viewBox="0 0 97 20" fill="none" xmlns="http://www.w3.org/2000/svg">
<rect opacity="0.66" x="0.199219" y="5.2002" width="2.4" height="9.6" rx="1.2" fill="black"/>
<rect opacity="0.66" x="7.39844" y="1.60059" width="2.4" height="16.8" rx="1.2" fill="black"/>
<rect opacity="0.66" x="14.5996" y="7.60059" width="2.4" height="4.8" rx="1.2" fill="black"/>
<rect opacity="0.66" x="21.7988" y="0.400391" width="2.4" height="19.2" rx="1.2" fill="black"/>
<rect opacity="0.66" x="29" y="1.60059" width="2.4" height="16.8" rx="1.2" fill="black"/>
<rect opacity="0.66" x="36.1992" y="4" width="2.4" height="12" rx="1.2" fill="black"/>
<rect opacity="0.66" x="43.3984" y="4" width="2.4" height="12" rx="1.2" fill="#00C1C3"/>
<rect opacity="0.66" x="50.5996" y="4" width="2.4" height="12" rx="1.2" fill="#00C1C3"/>
<rect opacity="0.66" x="57.7988" y="1.60059" width="2.4" height="16.8" rx="1.2" fill="#00C1C3"/>
<rect opacity="0.66" x="65" y="4" width="2.4" height="12" rx="1.2" fill="#00C1C3"/>
<rect opacity="0.66" x="72.1992" y="0.400391" width="2.4" height="19.2" rx="1.2" fill="#00C1C3"/>
<rect opacity="0.66" x="79.3984" y="4" width="2.4" height="12" rx="1.2" fill="#00C1C3"/>
<rect opacity="0.66" x="86.5996" y="7.60059" width="2.4" height="4.8" rx="1.2" fill="#00C1C3"/>
<rect opacity="0.66" x="93.7988" y="8.80078" width="2.4" height="2.4" rx="1.2" fill="#00C1C3"/>
</svg>
