<svg width="26" height="26" viewBox="0 0 26 26" fill="none" xmlns="http://www.w3.org/2000/svg">
<path d="M13.1992 25C19.8266 25 25.1992 19.6274 25.1992 13C25.1992 6.37258 19.8266 1 13.1992 1C6.5718 1 1.19922 6.37258 1.19922 13C1.19922 19.6274 6.5718 25 13.1992 25Z" stroke="black" stroke-width="1.2" stroke-linecap="round" stroke-linejoin="round"/>
<path d="M10.1992 9.3584C10.1992 8.78566 10.1992 8.49929 10.3189 8.33941C10.4232 8.20009 10.5829 8.11292 10.7565 8.10052C10.9557 8.0863 11.1966 8.24115 11.6783 8.55087L17.3431 12.1925C17.7611 12.4612 17.9702 12.5956 18.0424 12.7665C18.1054 12.9158 18.1054 13.0842 18.0424 13.2335C17.9702 13.4044 17.7611 13.5388 17.3431 13.8075L11.6783 17.4491C11.1966 17.7588 10.9557 17.9137 10.7565 17.8995C10.5829 17.8871 10.4232 17.7999 10.3189 17.6606C10.1992 17.5007 10.1992 17.2143 10.1992 16.6416V9.3584Z" stroke="black" stroke-width="1.2" stroke-linecap="round" stroke-linejoin="round"/>
</svg>
