<svg width="91" height="71" viewBox="0 0 91 71" fill="none" xmlns="http://www.w3.org/2000/svg">
<g clip-path="url(#clip0_2361_15447)">
<path fill-rule="evenodd" clip-rule="evenodd" d="M31.723 50.6263C38.8323 48.7314 43.0593 41.432 41.1644 34.3227C39.2694 27.2135 31.97 22.9864 24.8608 24.8814C17.7515 26.7763 13.5244 34.0757 15.4194 41.185C17.3144 48.2943 24.6137 52.5213 31.723 50.6263ZM29.8259 42.8527C32.6874 42.0899 34.3889 39.1518 33.6261 36.2902C32.8634 33.4286 29.9253 31.7272 27.0637 32.4899C24.2021 33.2526 22.5006 36.1908 23.2634 39.0524C24.0261 41.914 26.9643 43.6154 29.8259 42.8527Z" fill="#545454"/>
<path fill-rule="evenodd" clip-rule="evenodd" d="M31.723 50.6263C38.8323 48.7314 43.0593 41.432 41.1644 34.3227C39.2694 27.2135 31.97 22.9864 24.8608 24.8814C17.7515 26.7763 13.5244 34.0757 15.4194 41.185C17.3144 48.2943 24.6137 52.5213 31.723 50.6263ZM29.8259 42.8527C32.6874 42.0899 34.3889 39.1518 33.6261 36.2902C32.8634 33.4286 29.9253 31.7272 27.0637 32.4899C24.2021 33.2526 22.5006 36.1908 23.2634 39.0524C24.0261 41.914 26.9643 43.6154 29.8259 42.8527Z" fill="url(#paint0_angular_2361_15447)" fill-opacity="0.86"/>
<path fill-rule="evenodd" clip-rule="evenodd" d="M30.4008 45.2561C34.6373 44.1268 37.1562 39.7771 36.027 35.5406C34.8978 31.3041 30.548 28.7851 26.3115 29.9143C22.075 31.0436 19.556 35.3933 20.6853 39.6299C21.8145 43.8664 26.1643 46.3853 30.4008 45.2561ZM29.7557 42.8279C32.6508 42.0562 34.3722 39.0837 33.6005 36.1885C32.8288 33.2934 29.8563 31.572 26.9612 32.3437C24.066 33.1154 22.3446 36.0879 23.1163 38.9831C23.888 41.8782 26.8606 43.5996 29.7557 42.8279Z" fill="#9D9D9D"/>
<path fill-rule="evenodd" clip-rule="evenodd" d="M64.432 41.9076C71.5413 40.0126 75.7683 32.7133 73.8734 25.604C71.9784 18.4947 64.679 14.2677 57.5698 16.1626C50.4605 18.0576 46.2334 25.357 48.1284 32.4662C50.0233 39.5755 57.3227 43.8026 64.432 41.9076ZM62.5348 34.1328C65.3964 33.3701 67.0978 30.432 66.3351 27.5704C65.5723 24.7088 62.6342 23.0073 59.7726 23.7701C56.911 24.5328 55.2096 27.471 55.9723 30.3326C56.7351 33.1941 59.6732 34.8956 62.5348 34.1328Z" fill="#545454"/>
<path fill-rule="evenodd" clip-rule="evenodd" d="M64.432 41.9076C71.5413 40.0126 75.7683 32.7133 73.8734 25.604C71.9784 18.4947 64.679 14.2677 57.5698 16.1626C50.4605 18.0576 46.2334 25.357 48.1284 32.4662C50.0233 39.5755 57.3227 43.8026 64.432 41.9076ZM62.5348 34.1328C65.3964 33.3701 67.0978 30.432 66.3351 27.5704C65.5723 24.7088 62.6342 23.0073 59.7726 23.7701C56.911 24.5328 55.2096 27.471 55.9723 30.3326C56.7351 33.1941 59.6732 34.8956 62.5348 34.1328Z" fill="url(#paint1_angular_2361_15447)" fill-opacity="0.32"/>
<path fill-rule="evenodd" clip-rule="evenodd" d="M63.0492 36.6418C67.2857 35.5126 69.8047 31.1628 68.6754 26.9263C67.5462 22.6898 63.1964 20.1709 58.9599 21.3001C54.7234 22.4293 52.2045 26.7791 53.3337 31.0156C54.4629 35.2521 58.8127 37.771 63.0492 36.6418ZM62.404 34.2148C65.2991 33.4431 67.0205 30.4706 66.2488 27.5754C65.4771 24.6803 62.5046 22.9589 59.6094 23.7306C56.7143 24.5023 54.9929 27.4748 55.7646 30.37C56.5363 33.2651 59.5088 34.9865 62.404 34.2148Z" fill="#9D9D9D"/>
<g filter="url(#filter0_bii_2361_15447)">
<path fill-rule="evenodd" clip-rule="evenodd" d="M2.93988 20.3473C1.57727 20.7105 0.767089 22.1095 1.13029 23.4721L13.0992 68.3756C13.4624 69.7382 14.8614 70.5484 16.224 70.1852L87.7736 51.1139C89.1362 50.7507 89.9464 49.3517 89.5832 47.989L77.6143 3.08553C77.2511 1.72292 75.852 0.912735 74.4894 1.27594L2.93988 20.3473ZM29.7972 42.784C32.6587 42.0213 34.3601 39.0833 33.5974 36.2218C32.8347 33.3603 29.8967 31.659 27.0352 32.4217C24.1737 33.1844 22.4723 36.1224 23.235 38.9839C23.9978 41.8454 26.9358 43.5467 29.7972 42.784ZM66.1636 27.5423C66.9263 30.4038 65.225 33.3418 62.3635 34.1045C59.502 34.8672 56.564 33.1658 55.8013 30.3044C55.0386 27.4429 56.7399 24.5049 59.6014 23.7422C62.4629 22.9794 65.4009 24.6808 66.1636 27.5423ZM33.1645 64.333C33.9917 64.1125 34.4835 63.2632 34.2631 62.4361C34.0426 61.6089 33.1933 61.1171 32.3661 61.3375C31.5389 61.558 31.0471 62.4073 31.2676 63.2345C31.4881 64.0617 32.3374 64.5535 33.1645 64.333ZM70.6148 52.747C70.8353 53.5742 70.3434 54.4235 69.5162 54.644C68.6891 54.8645 67.8398 54.3727 67.6193 53.5455C67.3988 52.7183 67.8906 51.869 68.7178 51.6485C69.545 51.428 70.3943 51.9199 70.6148 52.747ZM38.7071 57.9581C37.8128 58.1965 37.2811 59.1147 37.5195 60.0089L37.6598 60.5351C37.8981 61.4294 38.8163 61.9611 39.7105 61.7227L40.763 61.4422C41.6573 61.2038 42.189 60.2857 41.9506 59.3914L41.8103 58.8652C41.572 57.9709 40.6538 57.4392 39.7596 57.6776L38.7071 57.9581ZM59.2957 54.2031C59.0574 53.3089 59.5891 52.3907 60.4833 52.1523L61.5358 51.8718C62.43 51.6335 63.3482 52.1652 63.5865 53.0594L63.7268 53.5856C63.9652 54.4799 63.4335 55.398 62.5392 55.6364L61.4867 55.9169C60.5925 56.1553 59.6743 55.6236 59.436 54.7293L59.2957 54.2031ZM34.6307 30.1868C34.0856 30.332 33.7616 30.8917 33.9068 31.4367L36.4058 40.8122C36.5511 41.3572 37.1107 41.6813 37.6558 41.536L54.9264 36.9326C55.4714 36.7873 55.7955 36.2277 55.6502 35.6826L53.1512 26.3072C53.0059 25.7621 52.4463 25.4381 51.9013 25.5833L34.6307 30.1868Z" fill="#636363" fill-opacity="0.22"/>
</g>
<g filter="url(#filter1_bi_2361_15447)">
<path fill-rule="evenodd" clip-rule="evenodd" d="M24.7611 55.5642C24.7278 54.684 25.3084 53.8981 26.1594 53.6713L70.7449 41.7872C71.599 41.5595 72.4966 41.9558 72.9037 42.7404L78.1792 52.907C78.3397 53.2161 78.1727 53.5943 77.8361 53.6841L25.8794 67.5329C25.5419 67.6229 25.2082 67.3764 25.195 67.0273L24.7611 55.5642ZM34.2633 62.4353C34.4838 63.2625 33.992 64.1118 33.1648 64.3323C32.3376 64.5527 31.4883 64.0609 31.2679 63.2337C31.0474 62.4066 31.5392 61.5573 32.3664 61.3368C33.1936 61.1163 34.0429 61.6081 34.2633 62.4353ZM69.5165 54.6432C70.3437 54.4228 70.8355 53.5735 70.615 52.7463C70.3946 51.9191 69.5453 51.4273 68.7181 51.6478C67.8909 51.8682 67.3991 52.7175 67.6196 53.5447C67.84 54.3719 68.6893 54.8637 69.5165 54.6432ZM37.5175 60.0078C37.2791 59.1136 37.8108 58.1954 38.705 57.9571L39.7575 57.6765C40.6518 57.4382 41.5699 57.9699 41.8083 58.8641L41.9486 59.3904C42.1869 60.2846 41.6552 61.2028 40.761 61.4411L39.7085 61.7217C38.8142 61.96 37.8961 61.4283 37.6577 60.5341L37.5175 60.0078ZM60.4836 52.1516C59.5893 52.3899 59.0576 53.3081 59.296 54.2023L59.4363 54.7286C59.6746 55.6228 60.5928 56.1545 61.487 55.9162L62.5395 55.6356C63.4337 55.3973 63.9654 54.4791 63.7271 53.5849L63.5868 53.0586C63.3485 52.1644 62.4303 51.6327 61.536 51.871L60.4836 52.1516Z" fill="#6B6B6B" fill-opacity="0.1"/>
</g>
<g filter="url(#filter2_i_2361_15447)">
<path fill-rule="evenodd" clip-rule="evenodd" d="M28.7421 41.93C28.8681 41.9203 28.9503 41.797 28.9177 41.6749L28.5941 40.4605C28.5601 40.3332 28.651 40.207 28.7809 40.1855C28.8652 40.1715 28.9496 40.1534 29.0339 40.1309C29.1186 40.1083 29.2013 40.0819 29.2818 40.0518C29.4053 40.0057 29.547 40.07 29.5809 40.1973L29.9092 41.429C29.9412 41.5492 30.0705 41.6155 30.1841 41.5649C31.1683 41.1268 31.9284 40.3484 32.359 39.4115C32.4112 39.2979 32.3453 39.1671 32.2245 39.1346L30.9803 38.7995C30.853 38.7652 30.7891 38.6233 30.8356 38.5C30.8964 38.3389 30.9417 38.1715 30.9703 38C30.992 37.8698 31.1186 37.779 31.246 37.8133L32.4843 38.1468C32.6058 38.1795 32.7289 38.0985 32.7397 37.9732C32.7817 37.4858 32.7413 36.9829 32.608 36.483C32.4718 35.9719 32.2499 35.5066 31.9619 35.0983C31.8897 34.996 31.7434 34.9876 31.6547 35.076L30.7748 35.9537C30.68 36.0482 30.5222 36.0304 30.4395 35.9252C30.332 35.7883 30.2119 35.6632 30.0814 35.5512C29.9828 35.4666 29.9695 35.3144 30.0614 35.2227L30.9303 34.3561C31.0193 34.2673 31.0108 34.1203 30.9079 34.0482C30.0726 33.4624 29.0367 33.1729 27.9762 33.2817C27.8525 33.2943 27.7734 33.4162 27.8055 33.5364L28.1074 34.6692C28.1413 34.7965 28.0504 34.9228 27.9204 34.9443C27.8356 34.9583 27.7508 34.9765 27.666 34.9991C27.5818 35.0215 27.4995 35.0478 27.4194 35.0777C27.296 35.1237 27.1544 35.0594 27.1205 34.9321L26.8231 33.8166C26.7906 33.6945 26.6579 33.6285 26.5438 33.6828C25.6218 34.1215 24.9061 34.8628 24.4873 35.7501C24.4336 35.864 24.4993 35.996 24.6209 36.0288L25.7216 36.3253C25.8491 36.3596 25.9129 36.5018 25.8661 36.6252C25.8051 36.7861 25.7594 36.9535 25.7305 37.125C25.7086 37.2549 25.5821 37.3455 25.4549 37.3112L24.3471 37.0128C24.2264 36.9803 24.1039 37.0601 24.0919 37.1845C24.0435 37.6857 24.0822 38.2038 24.2195 38.7189C24.3538 39.2229 24.5715 39.6825 24.8539 40.0867C24.9258 40.1897 25.0726 40.1985 25.1615 40.1098L26.0028 39.2707C26.0948 39.179 26.2468 39.1926 26.3313 39.2912C26.4444 39.4233 26.5698 39.5433 26.7051 39.6499C26.8102 39.7327 26.8276 39.8905 26.7328 39.9851L25.8812 40.8345C25.7925 40.923 25.8006 41.0694 25.9029 41.1419C26.7124 41.7153 27.7128 42.0092 28.7421 41.93ZM33.5949 36.2199C34.3577 39.0814 32.6563 42.0194 29.7948 42.7821C26.9333 43.5448 23.9953 41.8434 23.2326 38.982C22.4699 36.1205 24.1713 33.1825 27.0327 32.4198C29.8942 31.657 32.8322 33.3584 33.5949 36.2199Z" fill="#9D9D9D"/>
<path fill-rule="evenodd" clip-rule="evenodd" d="M28.7421 41.93C28.8681 41.9203 28.9503 41.797 28.9177 41.6749L28.5941 40.4605C28.5601 40.3332 28.651 40.207 28.7809 40.1855C28.8652 40.1715 28.9496 40.1534 29.0339 40.1309C29.1186 40.1083 29.2013 40.0819 29.2818 40.0518C29.4053 40.0057 29.547 40.07 29.5809 40.1973L29.9092 41.429C29.9412 41.5492 30.0705 41.6155 30.1841 41.5649C31.1683 41.1268 31.9284 40.3484 32.359 39.4115C32.4112 39.2979 32.3453 39.1671 32.2245 39.1346L30.9803 38.7995C30.853 38.7652 30.7891 38.6233 30.8356 38.5C30.8964 38.3389 30.9417 38.1715 30.9703 38C30.992 37.8698 31.1186 37.779 31.246 37.8133L32.4843 38.1468C32.6058 38.1795 32.7289 38.0985 32.7397 37.9732C32.7817 37.4858 32.7413 36.9829 32.608 36.483C32.4718 35.9719 32.2499 35.5066 31.9619 35.0983C31.8897 34.996 31.7434 34.9876 31.6547 35.076L30.7748 35.9537C30.68 36.0482 30.5222 36.0304 30.4395 35.9252C30.332 35.7883 30.2119 35.6632 30.0814 35.5512C29.9828 35.4666 29.9695 35.3144 30.0614 35.2227L30.9303 34.3561C31.0193 34.2673 31.0108 34.1203 30.9079 34.0482C30.0726 33.4624 29.0367 33.1729 27.9762 33.2817C27.8525 33.2943 27.7734 33.4162 27.8055 33.5364L28.1074 34.6692C28.1413 34.7965 28.0504 34.9228 27.9204 34.9443C27.8356 34.9583 27.7508 34.9765 27.666 34.9991C27.5818 35.0215 27.4995 35.0478 27.4194 35.0777C27.296 35.1237 27.1544 35.0594 27.1205 34.9321L26.8231 33.8166C26.7906 33.6945 26.6579 33.6285 26.5438 33.6828C25.6218 34.1215 24.9061 34.8628 24.4873 35.7501C24.4336 35.864 24.4993 35.996 24.6209 36.0288L25.7216 36.3253C25.8491 36.3596 25.9129 36.5018 25.8661 36.6252C25.8051 36.7861 25.7594 36.9535 25.7305 37.125C25.7086 37.2549 25.5821 37.3455 25.4549 37.3112L24.3471 37.0128C24.2264 36.9803 24.1039 37.0601 24.0919 37.1845C24.0435 37.6857 24.0822 38.2038 24.2195 38.7189C24.3538 39.2229 24.5715 39.6825 24.8539 40.0867C24.9258 40.1897 25.0726 40.1985 25.1615 40.1098L26.0028 39.2707C26.0948 39.179 26.2468 39.1926 26.3313 39.2912C26.4444 39.4233 26.5698 39.5433 26.7051 39.6499C26.8102 39.7327 26.8276 39.8905 26.7328 39.9851L25.8812 40.8345C25.7925 40.923 25.8006 41.0694 25.9029 41.1419C26.7124 41.7153 27.7128 42.0092 28.7421 41.93ZM33.5949 36.2199C34.3577 39.0814 32.6563 42.0194 29.7948 42.7821C26.9333 43.5448 23.9953 41.8434 23.2326 38.982C22.4699 36.1205 24.1713 33.1825 27.0327 32.4198C29.8942 31.657 32.8322 33.3584 33.5949 36.2199Z" fill="url(#paint2_linear_2361_15447)"/>
</g>
<g filter="url(#filter3_i_2361_15447)">
<path fill-rule="evenodd" clip-rule="evenodd" d="M61.2985 33.2531C61.4244 33.2434 61.5066 33.1201 61.4741 32.998L61.1506 31.7844C61.1167 31.6572 61.2074 31.531 61.3373 31.5094C61.4209 31.4955 61.5047 31.4775 61.5883 31.4552C61.6737 31.4324 61.757 31.4057 61.8381 31.3754C61.9616 31.3292 62.1034 31.3935 62.1373 31.5209L62.4654 32.7516C62.4974 32.8718 62.6267 32.9381 62.7403 32.8875C63.7234 32.4494 64.4826 31.6719 64.9131 30.736C64.9654 30.6223 64.8995 30.4915 64.7787 30.459L63.5346 30.1239C63.4074 30.0896 63.3435 29.9477 63.39 29.8244C63.4508 29.6634 63.4961 29.496 63.5247 29.3244C63.5464 29.1943 63.673 29.1034 63.8004 29.1377L65.0388 29.4713C65.1603 29.504 65.2834 29.4231 65.2943 29.2977C65.3364 28.8099 65.2961 28.3066 65.1627 27.8062C65.0265 27.2949 64.8044 26.8294 64.5161 26.4209C64.4439 26.3186 64.2976 26.3102 64.209 26.3987L63.3284 27.2769C63.2337 27.3714 63.076 27.3537 62.9932 27.2485C62.8857 27.1117 62.7655 26.9867 62.6349 26.8747C62.5362 26.7901 62.5229 26.6378 62.6149 26.5461L63.4843 25.6789C63.5734 25.5901 63.5648 25.4431 63.4619 25.3709C62.6272 24.7858 61.5922 24.4965 60.5326 24.6047C60.4089 24.6174 60.3297 24.7393 60.3618 24.8595L60.6639 25.9931C60.6979 26.1205 60.6069 26.2468 60.4768 26.2682C60.3914 26.2822 60.3058 26.3006 60.2205 26.3233C60.1368 26.3456 60.0552 26.3717 59.9757 26.4012C59.8523 26.4471 59.7108 26.3828 59.6769 26.2556L59.3793 25.1391C59.3468 25.0171 59.2142 24.951 59.1001 25.0053C58.1769 25.4441 57.4603 26.1863 57.0414 27.0745C56.9877 27.1884 57.0535 27.3205 57.175 27.3532L58.276 27.6497C58.4034 27.6841 58.4673 27.8263 58.4205 27.9496C58.3594 28.1106 58.3138 28.2779 58.2849 28.4494C58.263 28.5794 58.1365 28.6699 58.0093 28.6357L56.9017 28.3373C56.781 28.3048 56.6584 28.3846 56.6464 28.509C56.5983 29.0098 56.637 29.5275 56.7742 30.0421C56.9084 30.5459 57.126 31.0052 57.4081 31.4093C57.48 31.5123 57.6268 31.5211 57.7158 31.4324L58.5564 30.5939C58.6484 30.5022 58.8005 30.5159 58.885 30.6146C58.998 30.7467 59.1233 30.8668 59.2586 30.9734C59.3637 31.0563 59.381 31.214 59.2862 31.3085L58.4353 32.1573C58.3466 32.2458 58.3547 32.3922 58.4569 32.4647C59.267 33.0387 60.2683 33.3328 61.2985 33.2531ZM66.1496 27.5431C66.9123 30.4046 65.211 33.3426 62.3495 34.1053C59.488 34.8681 56.55 33.1667 55.7873 30.3052C55.0246 27.4437 56.7259 24.5057 59.5874 23.743C62.4489 22.9803 65.3869 24.6817 66.1496 27.5431Z" fill="#9D9D9D"/>
<path fill-rule="evenodd" clip-rule="evenodd" d="M61.2985 33.2531C61.4244 33.2434 61.5066 33.1201 61.4741 32.998L61.1506 31.7844C61.1167 31.6572 61.2074 31.531 61.3373 31.5094C61.4209 31.4955 61.5047 31.4775 61.5883 31.4552C61.6737 31.4324 61.757 31.4057 61.8381 31.3754C61.9616 31.3292 62.1034 31.3935 62.1373 31.5209L62.4654 32.7516C62.4974 32.8718 62.6267 32.9381 62.7403 32.8875C63.7234 32.4494 64.4826 31.6719 64.9131 30.736C64.9654 30.6223 64.8995 30.4915 64.7787 30.459L63.5346 30.1239C63.4074 30.0896 63.3435 29.9477 63.39 29.8244C63.4508 29.6634 63.4961 29.496 63.5247 29.3244C63.5464 29.1943 63.673 29.1034 63.8004 29.1377L65.0388 29.4713C65.1603 29.504 65.2834 29.4231 65.2943 29.2977C65.3364 28.8099 65.2961 28.3066 65.1627 27.8062C65.0265 27.2949 64.8044 26.8294 64.5161 26.4209C64.4439 26.3186 64.2976 26.3102 64.209 26.3987L63.3284 27.2769C63.2337 27.3714 63.076 27.3537 62.9932 27.2485C62.8857 27.1117 62.7655 26.9867 62.6349 26.8747C62.5362 26.7901 62.5229 26.6378 62.6149 26.5461L63.4843 25.6789C63.5734 25.5901 63.5648 25.4431 63.4619 25.3709C62.6272 24.7858 61.5922 24.4965 60.5326 24.6047C60.4089 24.6174 60.3297 24.7393 60.3618 24.8595L60.6639 25.9931C60.6979 26.1205 60.6069 26.2468 60.4768 26.2682C60.3914 26.2822 60.3058 26.3006 60.2205 26.3233C60.1368 26.3456 60.0552 26.3717 59.9757 26.4012C59.8523 26.4471 59.7108 26.3828 59.6769 26.2556L59.3793 25.1391C59.3468 25.0171 59.2142 24.951 59.1001 25.0053C58.1769 25.4441 57.4603 26.1863 57.0414 27.0745C56.9877 27.1884 57.0535 27.3205 57.175 27.3532L58.276 27.6497C58.4034 27.6841 58.4673 27.8263 58.4205 27.9496C58.3594 28.1106 58.3138 28.2779 58.2849 28.4494C58.263 28.5794 58.1365 28.6699 58.0093 28.6357L56.9017 28.3373C56.781 28.3048 56.6584 28.3846 56.6464 28.509C56.5983 29.0098 56.637 29.5275 56.7742 30.0421C56.9084 30.5459 57.126 31.0052 57.4081 31.4093C57.48 31.5123 57.6268 31.5211 57.7158 31.4324L58.5564 30.5939C58.6484 30.5022 58.8005 30.5159 58.885 30.6146C58.998 30.7467 59.1233 30.8668 59.2586 30.9734C59.3637 31.0563 59.381 31.214 59.2862 31.3085L58.4353 32.1573C58.3466 32.2458 58.3547 32.3922 58.4569 32.4647C59.267 33.0387 60.2683 33.3328 61.2985 33.2531ZM66.1496 27.5431C66.9123 30.4046 65.211 33.3426 62.3495 34.1053C59.488 34.8681 56.55 33.1667 55.7873 30.3052C55.0246 27.4437 56.7259 24.5057 59.5874 23.743C62.4489 22.9803 65.3869 24.6817 66.1496 27.5431Z" fill="url(#paint3_linear_2361_15447)"/>
</g>
<g opacity="0.4">
<g filter="url(#filter4_f_2361_15447)">
<ellipse cx="3.47939" cy="22.7563" rx="1.18613" ry="1.17265" transform="rotate(-14.925 3.47939 22.7563)" fill="url(#paint4_linear_2361_15447)" fill-opacity="0.85"/>
</g>
</g>
<g filter="url(#filter5_f_2361_15447)">
<ellipse cx="75.2111" cy="3.63744" rx="1.19352" ry="1.17996" transform="rotate(-14.925 75.2111 3.63744)" fill="url(#paint5_linear_2361_15447)" fill-opacity="0.85"/>
</g>
<g opacity="0.78">
<g filter="url(#filter6_f_2361_15447)">
<ellipse cx="15.5024" cy="67.8526" rx="1.1842" ry="1.17074" transform="rotate(-14.925 15.5024 67.8526)" fill="url(#paint6_linear_2361_15447)" fill-opacity="0.85"/>
</g>
</g>
<g opacity="0.62">
<g filter="url(#filter7_f_2361_15447)">
<ellipse cx="87.2321" cy="48.7304" rx="1.17554" ry="1.16218" transform="rotate(-14.925 87.2321 48.7304)" fill="url(#paint7_linear_2361_15447)" fill-opacity="0.85"/>
</g>
</g>
<g opacity="0.62">
<g filter="url(#filter8_f_2361_15447)">
<ellipse cx="49.7321" cy="52.4169" rx="1.17554" ry="1.16218" transform="rotate(-14.925 49.7321 52.4169)" fill="url(#paint8_linear_2361_15447)" fill-opacity="0.85"/>
</g>
</g>
<path fill-rule="evenodd" clip-rule="evenodd" d="M33.9037 31.4361C33.7584 30.8911 34.0825 30.3314 34.6275 30.1862L51.8981 25.5827C52.4431 25.4375 53.0028 25.7615 53.148 26.3066L55.647 35.682C55.7923 36.2271 55.4682 36.7867 54.9232 36.932L37.6526 41.5354C37.1076 41.6807 36.548 41.3566 36.4027 40.8116L33.9037 31.4361Z" fill="url(#paint9_linear_2361_15447)"/>
<mask id="path-15-outside-1_2361_15447" maskUnits="userSpaceOnUse" x="4.55157" y="5.12138" width="78.0703" height="50.4306" fill="black">
<rect fill="white" x="4.55157" y="5.12138" width="78.0703" height="50.4306"/>
<path d="M5.99118 25.1836C5.872 24.7365 6.13786 24.2774 6.58498 24.1582L72.5666 6.57104C73.0137 6.45186 73.4728 6.71771 73.592 7.16483L81.2526 35.9053C81.3718 36.3524 81.106 36.8115 80.6588 36.9307L14.6773 54.5179C14.2301 54.637 13.771 54.3712 13.6519 53.9241L5.99118 25.1836Z"/>
</mask>
<path d="M5.99118 25.1836C5.872 24.7365 6.13786 24.2774 6.58498 24.1582L72.5666 6.57104C73.0137 6.45186 73.4728 6.71771 73.592 7.16483L81.2526 35.9053C81.3718 36.3524 81.106 36.8115 80.6588 36.9307L14.6773 54.5179C14.2301 54.637 13.771 54.3712 13.6519 53.9241L5.99118 25.1836Z" fill="#A1A1A1" fill-opacity="0.15"/>
<path d="M6.6713 24.4821L72.6529 6.89487L72.4803 6.2472L6.49866 23.8344L6.6713 24.4821ZM73.2681 7.25115L80.9288 35.9916L81.5765 35.819L73.9158 7.07852L73.2681 7.25115ZM80.5725 36.6068L14.5909 54.194L14.7636 54.8417L80.7452 37.2545L80.5725 36.6068ZM13.9757 53.8377L6.31502 25.0973L5.66735 25.2699L13.328 54.0104L13.9757 53.8377ZM14.5909 54.194C14.3227 54.2655 14.0472 54.106 13.9757 53.8377L13.328 54.0104C13.4949 54.6364 14.1376 55.0085 14.7636 54.8417L14.5909 54.194ZM80.9288 35.9916C81.0003 36.2599 80.8408 36.5353 80.5725 36.6068L80.7452 37.2545C81.3711 37.0876 81.7433 36.4449 81.5765 35.819L80.9288 35.9916ZM72.6529 6.89487C72.9212 6.82337 73.1966 6.98288 73.2681 7.25115L73.9158 7.07852C73.7489 6.45254 73.1062 6.08035 72.4803 6.2472L72.6529 6.89487ZM6.49866 23.8344C5.87269 24.0012 5.5005 24.644 5.66735 25.2699L6.31502 25.0973C6.24351 24.829 6.40302 24.5536 6.6713 24.4821L6.49866 23.8344Z" fill="#8E8E8E" fill-opacity="0.07" mask="url(#path-15-outside-1_2361_15447)"/>
</g>
<defs>
<filter id="filter0_bii_2361_15447" x="-4.63066" y="-4.48417" width="99.9742" height="80.4303" filterUnits="userSpaceOnUse" color-interpolation-filters="sRGB">
<feFlood flood-opacity="0" result="BackgroundImageFix"/>
<feGaussianBlur in="BackgroundImageFix" stdDeviation="2.83681"/>
<feComposite in2="SourceAlpha" operator="in" result="effect1_backgroundBlur_2361_15447"/>
<feBlend mode="normal" in="SourceGraphic" in2="effect1_backgroundBlur_2361_15447" result="shape"/>
<feColorMatrix in="SourceAlpha" type="matrix" values="0 0 0 0 0 0 0 0 0 0 0 0 0 0 0 0 0 0 127 0" result="hardAlpha"/>
<feOffset dx="-0.591003"/>
<feGaussianBlur stdDeviation="0.295501"/>
<feComposite in2="hardAlpha" operator="arithmetic" k2="-1" k3="1"/>
<feColorMatrix type="matrix" values="0 0 0 0 0.476742 0 0 0 0 0.476742 0 0 0 0 0.476742 0 0 0 0.35 0"/>
<feBlend mode="normal" in2="shape" result="effect2_innerShadow_2361_15447"/>
<feColorMatrix in="SourceAlpha" type="matrix" values="0 0 0 0 0 0 0 0 0 0 0 0 0 0 0 0 0 0 127 0" result="hardAlpha"/>
<feOffset dx="0.591003"/>
<feGaussianBlur stdDeviation="0.295501"/>
<feComposite in2="hardAlpha" operator="arithmetic" k2="-1" k3="1"/>
<feColorMatrix type="matrix" values="0 0 0 0 0.511117 0 0 0 0 0.511117 0 0 0 0 0.511117 0 0 0 0.39 0"/>
<feBlend mode="normal" in2="effect2_innerShadow_2361_15447" result="effect3_innerShadow_2361_15447"/>
</filter>
<filter id="filter1_bi_2361_15447" x="22.1624" y="39.1263" width="58.6752" height="31.0228" filterUnits="userSpaceOnUse" color-interpolation-filters="sRGB">
<feFlood flood-opacity="0" result="BackgroundImageFix"/>
<feGaussianBlur in="BackgroundImageFix" stdDeviation="1.29868"/>
<feComposite in2="SourceAlpha" operator="in" result="effect1_backgroundBlur_2361_15447"/>
<feBlend mode="normal" in="SourceGraphic" in2="effect1_backgroundBlur_2361_15447" result="shape"/>
<feColorMatrix in="SourceAlpha" type="matrix" values="0 0 0 0 0 0 0 0 0 0 0 0 0 0 0 0 0 0 127 0" result="hardAlpha"/>
<feOffset dy="0.418928"/>
<feGaussianBlur stdDeviation="0.314196"/>
<feComposite in2="hardAlpha" operator="arithmetic" k2="-1" k3="1"/>
<feColorMatrix type="matrix" values="0 0 0 0 0.476725 0 0 0 0 0.476725 0 0 0 0 0.476725 0 0 0 0.59 0"/>
<feBlend mode="normal" in2="shape" result="effect2_innerShadow_2361_15447"/>
</filter>
<filter id="filter2_i_2361_15447" x="23.0508" y="32.2373" width="10.7266" height="10.7266" filterUnits="userSpaceOnUse" color-interpolation-filters="sRGB">
<feFlood flood-opacity="0" result="BackgroundImageFix"/>
<feBlend mode="normal" in="SourceGraphic" in2="BackgroundImageFix" result="shape"/>
<feColorMatrix in="SourceAlpha" type="matrix" values="0 0 0 0 0 0 0 0 0 0 0 0 0 0 0 0 0 0 127 0" result="hardAlpha"/>
<feOffset/>
<feGaussianBlur stdDeviation="0.209464"/>
<feComposite in2="hardAlpha" operator="arithmetic" k2="-1" k3="1"/>
<feColorMatrix type="matrix" values="0 0 0 0 0.804167 0 0 0 0 0.742246 0 0 0 0 0.522708 0 0 0 1 0"/>
<feBlend mode="normal" in2="shape" result="effect1_innerShadow_2361_15447"/>
</filter>
<filter id="filter3_i_2361_15447" x="55.6055" y="23.5605" width="10.7266" height="10.7266" filterUnits="userSpaceOnUse" color-interpolation-filters="sRGB">
<feFlood flood-opacity="0" result="BackgroundImageFix"/>
<feBlend mode="normal" in="SourceGraphic" in2="BackgroundImageFix" result="shape"/>
<feColorMatrix in="SourceAlpha" type="matrix" values="0 0 0 0 0 0 0 0 0 0 0 0 0 0 0 0 0 0 127 0" result="hardAlpha"/>
<feOffset/>
<feGaussianBlur stdDeviation="0.209464"/>
<feComposite in2="hardAlpha" operator="arithmetic" k2="-1" k3="1"/>
<feColorMatrix type="matrix" values="0 0 0 0 0.804167 0 0 0 0 0.742246 0 0 0 0 0.522708 0 0 0 1 0"/>
<feBlend mode="normal" in2="shape" result="effect1_innerShadow_2361_15447"/>
</filter>
<filter id="filter4_f_2361_15447" x="2.20918" y="21.4982" width="2.53866" height="2.51523" filterUnits="userSpaceOnUse" color-interpolation-filters="sRGB">
<feFlood flood-opacity="0" result="BackgroundImageFix"/>
<feBlend mode="normal" in="SourceGraphic" in2="BackgroundImageFix" result="shape"/>
<feGaussianBlur stdDeviation="0.0418928" result="effect1_foregroundBlur_2361_15447"/>
</filter>
<filter id="filter5_f_2361_15447" x="73.9338" y="2.37227" width="2.55429" height="2.52988" filterUnits="userSpaceOnUse" color-interpolation-filters="sRGB">
<feFlood flood-opacity="0" result="BackgroundImageFix"/>
<feBlend mode="normal" in="SourceGraphic" in2="BackgroundImageFix" result="shape"/>
<feGaussianBlur stdDeviation="0.0418928" result="effect1_foregroundBlur_2361_15447"/>
</filter>
<filter id="filter6_f_2361_15447" x="14.2346" y="66.5969" width="2.53476" height="2.51132" filterUnits="userSpaceOnUse" color-interpolation-filters="sRGB">
<feFlood flood-opacity="0" result="BackgroundImageFix"/>
<feBlend mode="normal" in="SourceGraphic" in2="BackgroundImageFix" result="shape"/>
<feGaussianBlur stdDeviation="0.0418928" result="effect1_foregroundBlur_2361_15447"/>
</filter>
<filter id="filter7_f_2361_15447" x="85.9729" y="47.4836" width="2.51718" height="2.49374" filterUnits="userSpaceOnUse" color-interpolation-filters="sRGB">
<feFlood flood-opacity="0" result="BackgroundImageFix"/>
<feBlend mode="normal" in="SourceGraphic" in2="BackgroundImageFix" result="shape"/>
<feGaussianBlur stdDeviation="0.0418928" result="effect1_foregroundBlur_2361_15447"/>
</filter>
<filter id="filter8_f_2361_15447" x="48.4729" y="51.1701" width="2.51718" height="2.49374" filterUnits="userSpaceOnUse" color-interpolation-filters="sRGB">
<feFlood flood-opacity="0" result="BackgroundImageFix"/>
<feBlend mode="normal" in="SourceGraphic" in2="BackgroundImageFix" result="shape"/>
<feGaussianBlur stdDeviation="0.0418928" result="effect1_foregroundBlur_2361_15447"/>
</filter>
<radialGradient id="paint0_angular_2361_15447" cx="0" cy="0" r="1" gradientUnits="userSpaceOnUse" gradientTransform="translate(28.2919 37.7539) rotate(75.075) scale(13.3219)">
<stop stop-color="#574D4D"/>
<stop offset="1" stop-color="white" stop-opacity="0"/>
</radialGradient>
<radialGradient id="paint1_angular_2361_15447" cx="0" cy="0" r="1" gradientUnits="userSpaceOnUse" gradientTransform="translate(61.0009 29.0351) rotate(75.075) scale(10.3475)">
<stop stop-color="#686868"/>
<stop offset="1" stop-color="white" stop-opacity="0"/>
</radialGradient>
<linearGradient id="paint2_linear_2361_15447" x1="22.9469" y1="35.6915" x2="27.4763" y2="37.5908" gradientUnits="userSpaceOnUse">
<stop stop-color="#434343" stop-opacity="0.22"/>
<stop offset="1" stop-color="#434343" stop-opacity="0"/>
</linearGradient>
<linearGradient id="paint3_linear_2361_15447" x1="55.5016" y1="27.0147" x2="60.031" y2="28.9141" gradientUnits="userSpaceOnUse">
<stop stop-color="#434343" stop-opacity="0.22"/>
<stop offset="1" stop-color="#434343" stop-opacity="0"/>
</linearGradient>
<linearGradient id="paint4_linear_2361_15447" x1="3.9781" y1="21.7184" x2="2.8998" y2="23.8346" gradientUnits="userSpaceOnUse">
<stop stop-color="#C4C4C4" stop-opacity="0.75"/>
<stop offset="1" stop-color="white" stop-opacity="0.31"/>
</linearGradient>
<linearGradient id="paint5_linear_2361_15447" x1="75.7129" y1="2.59311" x2="74.6279" y2="4.72246" gradientUnits="userSpaceOnUse">
<stop stop-color="#C4C4C4" stop-opacity="0.75"/>
<stop offset="1" stop-color="white" stop-opacity="0.31"/>
</linearGradient>
<linearGradient id="paint6_linear_2361_15447" x1="16.0003" y1="66.8164" x2="14.9238" y2="68.9292" gradientUnits="userSpaceOnUse">
<stop stop-color="#C4C4C4" stop-opacity="0.75"/>
<stop offset="1" stop-color="white" stop-opacity="0.31"/>
</linearGradient>
<linearGradient id="paint7_linear_2361_15447" x1="87.7263" y1="47.7018" x2="86.6577" y2="49.799" gradientUnits="userSpaceOnUse">
<stop stop-color="#C4C4C4" stop-opacity="0.75"/>
<stop offset="1" stop-color="white" stop-opacity="0.31"/>
</linearGradient>
<linearGradient id="paint8_linear_2361_15447" x1="50.2263" y1="51.3883" x2="49.1577" y2="53.4856" gradientUnits="userSpaceOnUse">
<stop stop-color="#C4C4C4" stop-opacity="0.75"/>
<stop offset="1" stop-color="white" stop-opacity="0.31"/>
</linearGradient>
<linearGradient id="paint9_linear_2361_15447" x1="36.5819" y1="31.5339" x2="56.1066" y2="37.3637" gradientUnits="userSpaceOnUse">
<stop offset="0.0729167" stop-color="#767676" stop-opacity="0"/>
<stop offset="0.239583" stop-color="#FBFBFB" stop-opacity="0.31"/>
<stop offset="0.395833" stop-color="#FBFBFB" stop-opacity="0"/>
<stop offset="0.65625" stop-color="#FBFBFB" stop-opacity="0"/>
<stop offset="0.807292" stop-color="#FBFBFB" stop-opacity="0.31"/>
<stop offset="0.9375" stop-color="#FBFBFB" stop-opacity="0"/>
</linearGradient>
<clipPath id="clip0_2361_15447">
<rect width="79.1544" height="51.578" fill="white" transform="translate(0.470703 21.0059) rotate(-14.925)"/>
</clipPath>
</defs>
</svg>
