<svg width="15" height="13" viewBox="0 0 15 13" fill="none" xmlns="http://www.w3.org/2000/svg">
<path d="M14.3719 4.24657L10.4119 8.15353M10.4119 4.24657L14.3719 8.15353M6.21052 1.22889L4.12117 3.29026C4.00702 3.40288 3.94995 3.45919 3.88334 3.49945C3.82429 3.53516 3.75991 3.56147 3.69257 3.57742C3.61661 3.59541 3.5359 3.59541 3.37447 3.59541H2.22787C1.85824 3.59541 1.67342 3.59541 1.53224 3.66638C1.40805 3.72881 1.30709 3.82843 1.24381 3.95095C1.17188 4.09024 1.17188 4.27258 1.17188 4.63727V7.76283C1.17188 8.12752 1.17188 8.30986 1.24381 8.44915C1.30709 8.57167 1.40805 8.67129 1.53224 8.73372C1.67342 8.80469 1.85824 8.80469 2.22787 8.80469H3.37447C3.5359 8.80469 3.61661 8.80469 3.69257 8.82268C3.75991 8.83863 3.82429 8.86494 3.88334 8.90064C3.94995 8.94091 4.00702 8.99722 4.12117 9.10984L6.21052 11.1712C6.49325 11.4501 6.63462 11.5896 6.75598 11.599C6.86129 11.6072 6.9642 11.5652 7.03281 11.4859C7.11187 11.3946 7.11187 11.1973 7.11187 10.8029V1.59724C7.11187 1.20276 7.11187 1.00552 7.03281 0.914183C6.9642 0.834934 6.86129 0.792877 6.75598 0.801054C6.63462 0.810478 6.49325 0.949949 6.21052 1.22889Z" stroke="#6E6E6E" stroke-width="1.2" stroke-linecap="round" stroke-linejoin="round"/>
</svg>
