<svg width="27" height="27" viewBox="0 0 27 27" fill="none" xmlns="http://www.w3.org/2000/svg">
<path d="M16.638 20.822C16.638 22.5551 15.233 23.9601 13.4998 23.9601C11.7667 23.9601 10.3617 22.5551 10.3617 20.822M15.3791 7.47282C15.8346 7.00218 16.115 6.36093 16.115 5.65419C16.115 4.2099 14.9441 3.03906 13.4998 3.03906C12.0555 3.03906 10.8847 4.2099 10.8847 5.65419C10.8847 6.36093 11.1651 7.00218 11.6206 7.47282M19.7762 12.6627C19.7762 11.2201 19.1149 9.83656 17.9379 8.81646C16.7608 7.79636 15.1644 7.22327 13.4998 7.22327C11.8353 7.22327 10.2389 7.79636 9.06182 8.81646C7.88478 9.83656 7.22353 11.2201 7.22353 12.6627C7.22353 15.0496 6.6316 16.7953 5.89301 18.0443C5.05123 19.468 4.63034 20.1798 4.64696 20.3498C4.66597 20.5443 4.70099 20.6057 4.85876 20.7211C4.99666 20.822 5.6895 20.822 7.07518 20.822H19.9245C21.3102 20.822 22.003 20.822 22.1409 20.7211C22.2987 20.6057 22.3337 20.5443 22.3527 20.3498C22.3693 20.1798 21.9485 19.468 21.1067 18.0444C20.3681 16.7953 19.7762 15.0496 19.7762 12.6627Z" stroke="white" stroke-width="1.39474" stroke-linecap="round" stroke-linejoin="round"/>
<circle cx="4.08542" cy="4.08542" r="3.13816" fill="#53FAFB"/>
</svg>
