<svg width="37" height="37" viewBox="0 0 37 37" fill="none" xmlns="http://www.w3.org/2000/svg">
<rect x="0.455078" y="0.330078" width="35.75" height="35.75" rx="17.875" fill="#FCC145"/>
<path d="M22.6993 15.5831C22.6993 15.1358 22.5286 14.6886 22.1874 14.3473C21.8461 14.006 21.3988 13.8354 20.9515 13.8354M20.9515 20.8265C23.8473 20.8265 26.1948 18.479 26.1948 15.5832C26.1948 12.6874 23.8473 10.3398 20.9515 10.3398C18.0557 10.3398 15.7082 12.6874 15.7082 15.5832C15.7082 15.8223 15.7242 16.0578 15.7552 16.2884C15.8062 16.6678 15.8317 16.8575 15.8145 16.9775C15.7967 17.1026 15.7739 17.1699 15.7123 17.2802C15.6531 17.386 15.5489 17.4903 15.3404 17.6987L10.8744 22.1648C10.7232 22.3159 10.6477 22.3915 10.5936 22.4797C10.5457 22.5579 10.5104 22.6431 10.489 22.7323C10.4648 22.8328 10.4648 22.9397 10.4648 23.1535V24.6716C10.4648 25.1611 10.4648 25.4058 10.5601 25.5927C10.6439 25.7571 10.7776 25.8908 10.942 25.9746C11.1289 26.0698 11.3736 26.0698 11.8631 26.0698H13.9604V24.3221H15.7082V22.5743H17.456L18.8359 21.1943C19.0444 20.9858 19.1487 20.8816 19.2545 20.8224C19.3647 20.7608 19.4321 20.738 19.5571 20.7201C19.6772 20.703 19.8669 20.7285 20.2462 20.7795C20.4769 20.8105 20.7123 20.8265 20.9515 20.8265Z" stroke="white" stroke-width="1.43" stroke-linecap="round" stroke-linejoin="round"/>
</svg>
