<svg width="21" height="22" viewBox="0 0 21 22" fill="none" xmlns="http://www.w3.org/2000/svg">
<path d="M8.8861 12.5143L19.5324 1.86804M9.01546 12.8469L11.6802 19.6991C11.9149 20.3027 12.0323 20.6045 12.2014 20.6926C12.348 20.769 12.5227 20.7691 12.6694 20.6929C12.8386 20.605 12.9563 20.3033 13.1918 19.7L19.8739 2.57697C20.0865 2.03231 20.1928 1.75998 20.1346 1.58596C20.0841 1.43484 19.9656 1.31624 19.8144 1.26575C19.6404 1.20762 19.3681 1.3139 18.8234 1.52645L1.70044 8.20858C1.09708 8.44404 0.795396 8.56177 0.707479 8.731C0.631264 8.8777 0.631367 9.05235 0.707754 9.19897C0.79587 9.36809 1.09769 9.48547 1.70133 9.72022L8.55346 12.3849C8.676 12.4326 8.73726 12.4564 8.78885 12.4932C8.83458 12.5258 8.87456 12.5658 8.90718 12.6115C8.94398 12.6631 8.96781 12.7244 9.01546 12.8469Z" stroke="black" stroke-width="1.3" stroke-linecap="round" stroke-linejoin="round"/>
</svg>
