<svg width="22" height="22" viewBox="0 0 22 22" fill="none" xmlns="http://www.w3.org/2000/svg">
<path d="M8.61196 17.757L9.1477 18.9619C9.30696 19.3206 9.56687 19.6253 9.89591 19.8392C10.2249 20.0531 10.609 20.1669 11.0014 20.1668C11.3938 20.1669 11.7779 20.0531 12.1069 19.8392C12.4359 19.6253 12.6958 19.3206 12.8551 18.9619L13.3908 17.757C13.5816 17.3295 13.9024 16.973 14.3075 16.7385C14.7152 16.5033 15.1869 16.4031 15.655 16.4523L16.9658 16.5918C17.356 16.6331 17.7498 16.5603 18.0995 16.3822C18.4491 16.2041 18.7396 15.9285 18.9357 15.5886C19.132 15.2489 19.2255 14.8596 19.2049 14.4678C19.1843 14.076 19.0504 13.6986 18.8196 13.3815L18.0434 12.3151C17.7671 11.9325 17.6194 11.4721 17.6218 11.0002C17.6217 10.5295 17.7707 10.071 18.0475 9.69035L18.8236 8.62396C19.0545 8.30677 19.1884 7.92939 19.209 7.53761C19.2296 7.14583 19.1361 6.75649 18.9397 6.41683C18.7437 6.07696 18.4532 5.80128 18.1036 5.6232C17.7539 5.44513 17.3601 5.37232 16.9699 5.41359L15.6591 5.55313C15.191 5.60229 14.7193 5.50211 14.3116 5.26692C13.9056 5.03106 13.5847 4.67274 13.3949 4.24331L12.8551 3.0384C12.6958 2.67974 12.4359 2.37498 12.1069 2.16111C11.7779 1.94724 11.3938 1.83343 11.0014 1.8335C10.609 1.83343 10.2249 1.94724 9.89591 2.16111C9.56687 2.37498 9.30696 2.67974 9.1477 3.0384L8.61196 4.24331C8.42214 4.67274 8.10126 5.03106 7.69529 5.26692C7.28757 5.50211 6.81591 5.60229 6.34779 5.55313L5.03288 5.41359C4.64269 5.37232 4.2489 5.44513 3.89926 5.6232C3.54962 5.80128 3.25915 6.07696 3.06307 6.41683C2.86674 6.75649 2.7732 7.14583 2.79382 7.53761C2.81443 7.92939 2.9483 8.30677 3.17918 8.62396L3.95529 9.69035C4.23207 10.071 4.38112 10.5295 4.38103 11.0002C4.38112 11.4708 4.23207 11.9293 3.95529 12.31L3.17918 13.3764C2.9483 13.6936 2.81443 14.0709 2.79382 14.4627C2.7732 14.8545 2.86674 15.2438 3.06307 15.5835C3.25934 15.9232 3.54985 16.1987 3.89944 16.3768C4.24902 16.5548 4.64272 16.6278 5.03288 16.5867L6.34372 16.4472C6.81183 16.398 7.2835 16.4982 7.69122 16.7334C8.0987 16.9686 8.42108 17.327 8.61196 17.757Z" stroke="white" stroke-linecap="round" stroke-linejoin="round"/>
<path d="M10.9998 13.7502C12.5185 13.7502 13.7498 12.5189 13.7498 11.0002C13.7498 9.48138 12.5185 8.25016 10.9998 8.25016C9.48098 8.25016 8.24977 9.48138 8.24977 11.0002C8.24977 12.5189 9.48098 13.7502 10.9998 13.7502Z" stroke="white" stroke-linecap="round" stroke-linejoin="round"/>
</svg>
