<svg width="18" height="16" viewBox="0 0 18 16" fill="none" xmlns="http://www.w3.org/2000/svg">
<path d="M4.75489 7.12818C3.92826 7.12818 3.51494 7.12818 3.17583 7.22375C2.2556 7.4831 1.53681 8.23911 1.29023 9.20699C1.19937 9.56366 1.19937 9.99838 1.19937 10.8678L1.19922 11.2854C1.19922 12.0832 1.19922 12.8686 1.48987 13.4686C1.74553 13.9963 2.15347 14.4254 2.65523 14.6943C3.22566 15 3.97239 15 5.46584 15H12.9324C14.4259 15 15.1726 15 15.7431 14.6943C16.2448 14.4254 16.6528 13.9963 16.9084 13.4686C17.1991 12.8686 17.1991 12.0832 17.1991 11.2854L17.1992 10.8678C17.1992 9.99838 17.1992 9.56366 17.1084 9.20699C16.8618 8.23911 16.143 7.4831 15.2228 7.22375C14.8836 7.12818 14.4703 7.12818 13.6437 7.12818M12.7548 4.73964L9.19929 1M9.19929 1L5.64377 4.73964M9.19929 1V9.69605" stroke="#53FAFB" stroke-linecap="round" stroke-linejoin="round"/>
</svg>
