<svg width="37" height="37" viewBox="0 0 37 37" fill="none" xmlns="http://www.w3.org/2000/svg">
<rect x="0.884766" y="0.834961" width="35.75" height="35.75" rx="17.875" fill="#474747"/>
<path d="M15.7262 15.6764L12.6927 12.6429M12.6927 24.7769L15.7262 21.7434M21.7932 21.7434L24.8267 24.7768M24.8267 12.6429L21.7932 15.6764M27.3397 18.7099C27.3397 23.4485 23.4983 27.2899 18.7597 27.2899C14.0211 27.2899 10.1797 23.4485 10.1797 18.7099C10.1797 13.9713 14.0211 10.1299 18.7597 10.1299C23.4983 10.1299 27.3397 13.9713 27.3397 18.7099ZM23.0497 18.7099C23.0497 21.0792 21.129 22.9999 18.7597 22.9999C16.3904 22.9999 14.4697 21.0792 14.4697 18.7099C14.4697 16.3406 16.3904 14.4199 18.7597 14.4199C21.129 14.4199 23.0497 16.3406 23.0497 18.7099Z" stroke="white" stroke-width="1.43" stroke-linecap="round" stroke-linejoin="round"/>
</svg>
