<svg width="40" height="40" viewBox="0 0 40 40" fill="none" xmlns="http://www.w3.org/2000/svg">
<path d="M30 29V27C30 25.1362 28.7252 23.5701 27 23.126M23.5 11.2908C24.9659 11.8841 26 13.3213 26 15C26 16.6787 24.9659 18.1159 23.5 18.7092M25 29C25 27.1362 25 26.2044 24.6955 25.4693C24.2895 24.4892 23.5108 23.7105 22.5307 23.3045C21.7956 23 20.8638 23 19 23H16C14.1362 23 13.2044 23 12.4693 23.3045C11.4892 23.7105 10.7105 24.4892 10.3045 25.4693C10 26.2044 10 27.1362 10 29M21.5 15C21.5 17.2091 19.7091 19 17.5 19C15.2909 19 13.5 17.2091 13.5 15C13.5 12.7909 15.2909 11 17.5 11C19.7091 11 21.5 12.7909 21.5 15Z" stroke="black" stroke-width="1.5" stroke-linecap="round" stroke-linejoin="round"/>
</svg>
