<svg width="63" height="17" viewBox="0 0 63 17" fill="none" xmlns="http://www.w3.org/2000/svg">
<path d="M22.8679 13.0215V4.66258H19.6113V3.79241C22.2219 3.79241 24.4368 3.79241 27.0473 3.79241V4.66258H23.7908V13.0215H22.8679ZM34.3745 12.1513V13.0215H27.756C27.756 9.94952 27.756 6.86437 27.756 3.79241H34.2559V4.66258H28.6789V7.97186H34.0054V8.82885H28.6789V12.1513H34.3745ZM36.1982 3.79241L42.1707 11.2811L42.118 8.22236V3.79241H43.0409V13.0215H42.4871L36.5146 5.59867L36.541 8.32784V13.0215H35.6181V3.79241H36.1982ZM51.3587 5.25587L50.5808 5.69096C50.0402 4.82079 48.9064 4.53073 47.9307 4.51755C46.7969 4.51755 45.3334 4.84716 45.3334 6.20515C45.3334 7.28627 46.52 7.57633 47.9571 7.82683C49.7765 8.14326 51.6224 8.55197 51.6224 10.5164C51.6092 12.5996 49.6051 13.1665 47.9307 13.1665C46.375 13.1665 44.7928 12.5996 44.0809 11.1229L44.8851 10.6878C45.518 11.8744 46.81 12.2832 47.9307 12.2832C49.0646 12.2832 50.6863 11.9799 50.6863 10.5033C50.6994 9.25075 49.3019 8.93432 47.8648 8.68382C46.1245 8.38058 44.4105 7.99823 44.4105 6.20515C44.3841 4.26704 46.3618 3.64738 47.9175 3.64738C49.1832 3.64738 50.5412 3.99017 51.3587 5.25587ZM56.8328 3.63419C59.9575 3.64738 61.5133 5.96783 61.5001 8.43331C61.4869 10.8461 59.9575 13.1929 56.8328 13.1929C53.695 13.1929 52.1524 10.8461 52.1524 8.42013C52.1524 5.8228 53.84 3.63419 56.8328 3.63419ZM53.0753 8.43331C53.1017 10.4505 54.3146 12.3227 56.8328 12.3227C59.3511 12.3227 60.564 10.411 60.5772 8.43331C60.5772 6.36336 59.3511 4.51755 56.8328 4.50436C54.3542 4.50436 53.0489 6.25789 53.0753 8.43331Z" fill="white"/>
<path d="M7.6658 2.48633L1.49023 8.68051H4.1901L5.88451 6.98611V13.0127L7.6658 14.794V2.48633ZM9.6457 2.48633L15.8213 8.68051H13.1214L11.427 6.98611V13.0127L9.6457 14.794V2.48633Z" fill="white"/>
</svg>
