<svg width="32" height="32" viewBox="0 0 32 32" fill="none" xmlns="http://www.w3.org/2000/svg">
<path d="M16 0C7.17748 0 0 7.17748 0 16C0 24.8225 7.17748 32 16 32C24.8225 32 32 24.8225 32 16C32 7.17748 24.8225 0 16 0ZM16 29.4216C8.59962 29.4216 2.57844 23.4004 2.57844 16C2.57844 8.59962 8.59962 2.57844 16 2.57844C23.4004 2.57844 29.4216 8.59962 29.4216 16C29.4216 23.4004 23.4004 29.4216 16 29.4216Z" fill="#53FAFB"/>
<path d="M14.9918 14.7408C15.2468 15.0605 15.622 15.2268 16.0009 15.2268C16.283 15.2268 16.5662 15.1349 16.8035 14.946C17.3606 14.5023 17.4525 13.6908 17.0088 13.1343L12.7981 7.85029C12.7848 7.83366 12.763 7.82864 12.7491 7.81278C12.5128 7.54294 12.1764 7.36426 11.7896 7.36426C11.4029 7.36426 11.0665 7.54294 10.8302 7.81278C10.8161 7.82851 10.7945 7.83366 10.7812 7.85029L6.57048 13.1343C6.12673 13.6907 6.21865 14.5022 6.77572 14.946C7.3328 15.3899 8.14359 15.2992 8.58747 14.7408L10.5005 12.34V23.3461C10.5005 24.058 11.0779 24.6353 11.7898 24.6353C12.5017 24.6353 13.079 24.058 13.079 23.3461V12.34L14.9918 14.7408Z" fill="#53FAFB"/>
<path d="M25.2252 17.0535C24.6688 16.6109 23.8585 16.7017 23.4134 17.2588L21.5004 19.6596V8.65348C21.5004 7.94157 20.9231 7.36426 20.2111 7.36426C19.4992 7.36426 18.9219 7.94157 18.9219 8.65348V19.6596L17.0089 17.2588C16.5651 16.7017 15.7537 16.6104 15.1971 17.0535C14.64 17.4973 14.5481 18.3087 14.9919 18.8653L19.2026 24.1493C19.2166 24.1669 19.2392 24.1736 19.2542 24.1904C19.3387 24.2863 19.4403 24.3589 19.5496 24.4263C19.5949 24.454 19.6314 24.4921 19.6796 24.5139C19.8426 24.5882 20.0202 24.6352 20.211 24.6352C20.4018 24.6352 20.5795 24.5882 20.7424 24.5139C20.7907 24.4919 20.8271 24.454 20.8724 24.4263C20.9817 24.359 21.0833 24.2863 21.1679 24.1904C21.1827 24.1736 21.2054 24.1669 21.2194 24.1493L25.4302 18.8653C25.8742 18.3087 25.7823 17.4973 25.2252 17.0535Z" fill="#53FAFB"/>
</svg>
