<svg width="24" height="20" viewBox="0 0 24 20" fill="none" xmlns="http://www.w3.org/2000/svg">
<path d="M23 10L8.33333 10M23 2.28572L8.33333 2.28571M23 17.7143L8.33333 17.7143M3.44444 10C3.44444 10.7101 2.89724 11.2857 2.22222 11.2857C1.54721 11.2857 1 10.7101 1 10C1 9.28992 1.54721 8.71429 2.22222 8.71429C2.89724 8.71429 3.44444 9.28992 3.44444 10ZM3.44444 2.28571C3.44444 2.99579 2.89724 3.57143 2.22222 3.57143C1.54721 3.57143 1 2.99579 1 2.28571C1 1.57563 1.54721 1 2.22222 1C2.89724 1 3.44444 1.57563 3.44444 2.28571ZM3.44444 17.7143C3.44444 18.4244 2.89724 19 2.22222 19C1.54721 19 1 18.4244 1 17.7143C1 17.0042 1.54721 16.4286 2.22222 16.4286C2.89724 16.4286 3.44444 17.0042 3.44444 17.7143Z" stroke="white" stroke-linecap="round" stroke-linejoin="round"/>
</svg>
