<svg width="36" height="37" viewBox="0 0 36 37" fill="none" xmlns="http://www.w3.org/2000/svg">
<rect x="0.0234375" y="0.580078" width="35.75" height="35.75" rx="17.875" fill="#0E51B4"/>
<path d="M21.0758 15.4492V12.6691C21.0758 12.0084 21.0758 11.678 20.9366 11.4749C20.815 11.2976 20.6267 11.177 20.4147 11.141C20.172 11.0997 19.872 11.2381 19.272 11.515L12.2249 14.7675C11.6899 15.0145 11.4223 15.138 11.2264 15.3295C11.0532 15.4988 10.9209 15.7054 10.8398 15.9337C10.748 16.1918 10.748 16.4865 10.748 17.0758V21.0103M21.473 20.6131H21.481M10.748 17.9914L10.748 23.2347C10.748 24.1246 10.748 24.5695 10.9212 24.9094C11.0736 25.2084 11.3166 25.4514 11.6156 25.6038C11.9555 25.777 12.4004 25.777 13.2903 25.777H22.5058C23.3957 25.777 23.8406 25.777 24.1805 25.6038C24.4795 25.4514 24.7225 25.2084 24.8749 24.9094C25.048 24.5695 25.048 24.1246 25.048 23.2347V17.9914C25.048 17.1015 25.048 16.6566 24.8749 16.3167C24.7225 16.0178 24.4795 15.7747 24.1805 15.6224C23.8406 15.4492 23.3957 15.4492 22.5058 15.4492L13.2903 15.4492C12.4004 15.4492 11.9555 15.4492 11.6156 15.6224C11.3166 15.7747 11.0736 16.0178 10.9212 16.3167C10.748 16.6566 10.748 17.1015 10.748 17.9914ZM21.8703 20.6131C21.8703 20.8324 21.6924 21.0103 21.473 21.0103C21.2537 21.0103 21.0758 20.8324 21.0758 20.6131C21.0758 20.3937 21.2537 20.2158 21.473 20.2158C21.6924 20.2158 21.8703 20.3937 21.8703 20.6131Z" stroke="white" stroke-width="1.716" stroke-linecap="round" stroke-linejoin="round"/>
</svg>
